<?xml version="1.0" encoding="utf-8"?>
<!-- Generator: Adobe Illustrator 16.0.0, SVG Export Plug-In . SVG Version: 6.00 Build 0)  -->
<!DOCTYPE svg PUBLIC "-//W3C//DTD SVG 1.1//EN" "http://www.w3.org/Graphics/SVG/1.1/DTD/svg11.dtd">
<svg version="1.1" id="图层_1" xmlns="http://www.w3.org/2000/svg" xmlns:xlink="http://www.w3.org/1999/xlink" x="0px" y="0px"
	 width="800px" height="800px" viewBox="0 0 800 800" enable-background="new 0 0 800 800" xml:space="preserve">
<path fill="#F4CEAB" d="M273.219,73.577c0,0-1.531,12.71-0.446,15.842c1.084,3.133,3.363,4.167,3.363,4.167s6.729,1.272,9.995-0.375
	c3.267-1.649,6.375-13.644,5.794-17.223C291.346,72.409,273.219,73.577,273.219,73.577"/>
<path fill="#FFE1C5" d="M295.254,78.417c1.953-2.402,2.971-9.659,2.954-13.562c-0.018-3.903-1.35-7.227-4.485-7.111
	s-4.302,4.678-4.6,6.98c0,0-0.388-7.071-4.802-7.12c-4.415-0.049-4.471,6.444-4.471,6.444s-1.453-4.867-4.753-3.473
	c-3.3,1.395-4.527,6.885-3.477,10.827c1.053,3.942,6.017,9.783,8.081,5.888c0,0,4.78,5.297,7.584-0.322
	C287.286,76.969,291.237,83.36,295.254,78.417"/>
<path fill="#FFE1C5" d="M290.471,95.341c0,0,5.097-2.723,6.965-6.383c1.87-3.66,2.964-13.66,1.913-14.835
	c-1.052-1.176-14.385-2.634-17.809-2.296c-3.424,0.339-2.267,7.508,5.57,7.219c0,0-9.54,9.506-5.057,13.037
	C286.535,95.614,290.471,95.341,290.471,95.341"/>
<path fill="#D89D71" d="M296.416,73.246c0,0-13.068-2.967-16.698-2.226c-3.628,0.742-1.997,8.457,5.719,8.457
	c0,0-6.084,6.231-4.303,10.832c0,0,0.742-6.38,8.012-11.722c0,0-9.427,0.445-9.427-4.451C279.718,70.26,286.92,72.06,296.416,73.246
	"/>
<path fill="#464B4C" d="M304.58,237.063c0,0-23.02-20.138-29.37-57.621c-6.35-37.482,15.261-84.101,15.261-84.101
	s-9.094-6.113-17.905-2.309c0,0-19.82,44.841-10.19,87.131c9.63,42.291,33.9,69.984,37.288,70.879
	C303.049,251.938,312.621,245.948,304.58,237.063"/>
<path fill="#B5EDF7" d="M250.188,168.48c-1.973-5.64-1.193-11.207-1.128-17.037c0.013-1.176-1.895-1.148-2.039-0.021
	c-0.735,5.788-1.572,12.474,1.271,17.824C248.902,170.392,250.632,169.748,250.188,168.48"/>
<path fill="#B5EDF7" d="M243.639,165.341c-0.755-3.796-1.626-7.42-0.638-11.277c0.279-1.086-1.526-1.688-1.887-0.616
	c-1.313,3.89-1.18,8.564,0.492,12.343C242.059,166.813,243.883,166.573,243.639,165.341"/>
<path fill="#FFE1C5" d="M385.277,299.897c0,0-11.664-0.292-13.696,1.352c-2.032,1.646-0.736,5.713-0.736,5.713
	s-6.008,8.066-4.464,9.306c1.545,1.239,5.605,2.022,5.605,2.022s-1.127,6.875,1.355,7.715c2.482,0.839,8.827-1.983,8.827-1.983
	s1.572,3.945,4.969,3.812c3.397-0.132,9.422-16.655,10.697-18.434C399.108,307.622,385.277,299.897,385.277,299.897"/>
<path fill="#464B4C" d="M333.881,238.014c0,0,23.495-2.736,36.917-4.646c13.42-1.91,41.495-1.845,46.033,21.449
	c4.539,23.293-18.997,54.583-18.997,54.583s-12.924-2.613-13.58-9.635c0,0,21.265-21.746,16.773-41.373
	c-4.491-19.627-46.543-10.095-57.293-7.385C332.983,253.717,328.527,242.568,333.881,238.014"/>
<path fill="#B5EDF7" d="M422.003,243.617c-0.956-4.254-3.79-9.355-8.034-10.978c-1.252-0.479-2.085,1.212-0.906,1.877
	c4,2.261,4.745,6.504,7.103,10.048C420.873,245.629,422.245,244.697,422.003,243.617"/>
<path fill="#B5EDF7" d="M420.338,229.717c-1.294-0.455-2.184,1.263-0.939,1.944c3.016,1.652,3.777,4.944,5.372,7.715
	c0.531,0.922,2.066,0.329,1.928-0.695C426.219,235.164,423.832,230.947,420.338,229.717"/>
<path fill="#725C2B" d="M301.487,147.729c0,0-11.628,25.653-7.025,38.369c0,0,16.783-32.052,15.892-37.226
	C309.463,143.699,301.487,147.729,301.487,147.729"/>
<path fill="#FFE1C5" d="M308.396,145.236c0,0-27.284,63.744-24.885,72.027c2.399,8.283,37.934,17.717,45.336,11.391
	c7.404-6.327,26.198-47.242,28.266-52.522c2.067-5.281,6.828-23.389-1.456-31.737C347.371,136.045,311.956,136.756,308.396,145.236"
	/>
<path fill="#725C2B" d="M348.578,199.301c0,0-10.273-19.699,7.952-36.072c0,0-12.434,3.598-14.767,0.176
	c-2.332-3.42,6.769-9.528,6.769-9.528s-21.378,4.525-25.075,0.929c-3.697-3.597,3.639-7.158,3.639-7.158s-25.442,9.548-32.969,3.377
	c-7.525-6.17-5.931-10.472,9.504-9.175c0,0-12.62-12.375-4.547-26.589c8.073-14.214,19.327-12.764,23.156-10.19
	c3.829,2.574,2.301,11.739,0.288,13.905c0,0,16.204-10.046,25.653-5.361c9.451,4.686-0.569,15.182-3.946,17.173
	c0,0,31.386,1.272,27.857,20.58c0,0,4.246-6.041,6.797-4.325c2.553,1.715-0.634,7.615-3.688,9.787c0,0,6.913,5.537,3.394,11.324
	c-3.519,5.787-8.261-3.145-8.261-3.145s0.187,25.644-11.516,31.608C347.116,202.58,348.578,199.301,348.578,199.301"/>
<path fill="#CB8F5E" d="M317.535,169.817c0,0-2.277,9.587-4.132,9.868c-1.857,0.281-5.768-5.685-8.953-1.154
	c-3.184,4.53,3.111,6.122,5.126,6.641c0,0-11.444,1.004-7.362-7.45c2.837-5.875,8.372-0.397,9.657-0.273
	C313.155,177.574,317.535,169.817,317.535,169.817"/>
<path fill="#190F08" d="M331.337,174.086c-0.61,1.883-1.983,3.125-3.067,2.773c-1.085-0.352-1.468-2.163-0.857-4.045
	c0.609-1.883,1.983-3.125,3.067-2.773C331.563,170.393,331.948,172.204,331.337,174.086"/>
<path fill="#190F08" d="M312.215,169.515c-0.61,1.883-1.983,3.125-3.067,2.773c-1.085-0.353-1.468-2.163-0.857-4.046
	c0.609-1.882,1.983-3.125,3.067-2.772C312.441,165.82,312.827,167.632,312.215,169.515"/>
<path fill="#493918" d="M326.28,163.837c0,0,4.417-6.018,12.497-0.123C338.777,163.714,330.741,162.852,326.28,163.837"/>
<path fill="#493918" d="M318.437,162.826c0,0-2.842-8.167-9.238-3.964C309.199,158.861,314.57,159.207,318.437,162.826"/>
<path fill="#DA9089" d="M305.358,218.17c1.74,1.203,3.769,2.05,6.16,2.357c8.298,1.063,15.998-8.795,21.127-17.57
	C326.087,202.327,309.07,202.295,305.358,218.17"/>
<path fill="#753427" d="M295.299,190.353c0,0-0.391,20.585,10.059,27.817c3.711-15.875,20.729-15.844,27.288-15.213
	c3.946-6.751,6.372-12.863,6.372-12.863C334.671,188.841,295.299,190.353,295.299,190.353"/>
<path fill="#FFE1C5" d="M343.76,199.026c0,0,6.433-7.491,12.348-4.648c5.913,2.842,6.344,12.952-0.619,15.868
	C348.525,213.163,337.568,212.097,343.76,199.026"/>
<path fill="#464B4C" d="M281.477,334.707c0,0-39.534,30.788-53.231,56.065c-13.696,25.278-27.055,72.44-26.428,75.641
	c0.627,3.202,15.332,6.137,21.485,2.77c0,0,6.296-56.914,22.812-76.108c16.514-19.193,45.224-35.254,71.091-38.682
	c25.865-3.426,63.343,16.487,74.565,26.253c11.223,9.768,37.762,45.952,34.452,91.81c0,0,14.439,4.982,25.427-7.644
	c0,0-13.648-54.359-40.853-90.554c-17.313-23.034-72.581-41.079-72.581-41.079L281.477,334.707z"/>
<path fill="#473409" d="M444.67,466.513c0,0,13.696-1.354,17.227-4.54s8.117-14.556,9.784-15.381
	c1.666-0.826,11.684,6.187,12.839,13.356c0,0-23.264,19.103-32.422,21.563l-9.208-1.187l-0.659,5.116c0,0-11.468,4.241-15.94,2.624
	c0,0-1.471-16.831,2.571-19.951C432.903,464.995,444.67,466.513,444.67,466.513"/>
<path fill="#473409" d="M204.267,468.529c0,0-17.73-4.605-21.047-7.113c-3.316-2.507-8.153-9.371-8.153-9.371
	s-13.303,6.373-16.567,11.529c0,0,32.173,18.564,44.017,18.531l5.59-3.96c0,0,2.447,5.231,4.507,5.379
	c2.062,0.147,11.731-2.246,11.731-2.246s-0.91-13.118-3.072-16.518L204.267,468.529z"/>
<path fill="#B5EDF7" d="M428.454,383.912c-2.655-5.677-7.027-12.077-12.748-14.994c-1.044-0.532-2.145,1.067-1.145,1.746
	c5.441,3.691,8.336,8.948,11.869,14.291C427.138,386.022,429.014,385.109,428.454,383.912"/>
<path fill="#B5EDF7" d="M430.671,376.415c-2.07-3.446-4.598-6.869-7.777-9.369c-1.033-0.814-2.328,0.68-1.333,1.55
	c2.98,2.604,4.919,5.964,7.238,9.11C429.677,378.896,431.422,377.666,430.671,376.415"/>
<path fill="#B5EDF7" d="M222.159,384.208c-3.2,3.895-4.859,8.813-6.493,13.509c-0.424,1.222,1.345,2.137,1.847,0.893
	c1.858-4.604,3.886-8.976,6.358-13.28C224.461,384.303,222.892,383.315,222.159,384.208"/>
<path fill="#B5EDF7" d="M214.437,385.721c-1.775,3.392-3.277,7.192-3.942,10.964c-0.197,1.121,1.694,1.455,1.966,0.36
	c0.896-3.603,3.169-6.783,3.907-10.401C216.593,385.547,215.051,384.547,214.437,385.721"/>
<path fill="#464B4C" d="M302.918,237.103c0,0,32.766-0.979,40.215,3.101c7.448,4.081-6.128,42.895-1.455,66.12
	c4.673,23.225,8.33,29.156,8.33,29.156s-30.405,11.163-40.439,8.309l-2.593-5.275c0,0-1.871,2.318-5.232,5.826
	c0,0-15.39-1.203-24.26-7.027C277.484,337.313,289.399,270.43,302.918,237.103"/>
<path fill="#FFE1C5" d="M309.751,228.187c0,0,1.976,12.909,2.989,15.813c1.013,2.905,3.441,6.251,8.144,3.39
	c4.702-2.86,4.595-19.862,4.733-22.099C325.754,223.055,312.706,225.447,309.751,228.187"/>
<path fill="#E5E5E5" d="M316.741,237.842c0,0,0.146,4.875-0.946,7.332c0,0-1.353-5.902-2.284-6.482l-6.924,5.295
	c0,0-2.383,30.549,3.348,49.316c0,0,17.519-36.226,22.331-53.461L316.741,237.842z"/>
<path fill="#141414" d="M313.188,247.93c0,0,4.849-1.31,6.48,0.835c0,0,1.945,8.773,1.598,10.289c0,0-9.406,0.521-11.171-0.574
	C310.094,258.48,311.926,249.646,313.188,247.93"/>
<path fill="#141414" d="M306.805,275.744c0,0,5.249-15.87,5.934-16.699l5.588,0.113c0,0,0.667,9.276,1.205,13.35l-9.595,20.795
	C309.937,293.303,307.138,280.083,306.805,275.744"/>
<path fill="#676B6B" d="M332.399,238.819c0,0,6.461,8.981,9.107,14.002c0,0-9.688,5.219-12.838,5.453c0,0,8.22,8.86,10.441,13.134
	c0,0-21.185,17.724-29.173,21.895C309.937,293.303,330.627,247.259,332.399,238.819"/>
<path fill="#676B6B" d="M306.588,243.987c0,0-6.083,6.843-8.519,8.263c0,0,3.188,3.497,6.025,5.7c0,0-8.186,7.023-10.517,8.976
	c0,0,10.624,19.745,16.358,26.378C309.936,293.304,304.627,268.163,306.588,243.987"/>
<path fill="#2E3030" d="M310.08,298.089c0,0-0.791,22.52-2.477,35.564C307.603,333.653,307.359,308.92,310.08,298.089"/>
<path fill="#2E3030" d="M306.036,307.449c-0.213,1.648-1.116,2.89-2.017,2.774c-0.9-0.117-1.458-1.546-1.247-3.194
	c0.212-1.649,1.115-2.89,2.016-2.774C305.69,304.371,306.248,305.801,306.036,307.449"/>
<path fill="#2E3030" d="M305.01,323.166c-0.098,1.469-0.89,2.612-1.77,2.554c-0.88-0.06-1.514-1.297-1.416-2.766
	c0.097-1.469,0.889-2.612,1.77-2.553C304.474,320.46,305.107,321.697,305.01,323.166"/>
<path fill="#FFFFFF" d="M316.741,237.842c0,0,8.801-5.068,10.799-5.783c0,0,5.861,4.295,6.324,6.085c0,0-8.843,9.432-9.913,10.334
	C323.951,248.479,318.293,239.255,316.741,237.842"/>
<path fill="#FFFFFF" d="M307.142,232.964c0,0,4.725,5.048,6.37,5.728c0,0-3.59,9.019-3.892,10.019c0,0-5.586-4.533-6.701-6.236
	C302.918,242.475,304.975,233.872,307.142,232.964"/>
<path fill="#2E3030" d="M277.484,337.313c0,0,16.68,6.38,24.259,7.027l5.062-7.027c0,0,2.218,6.629,4.266,6.78
	c0,0,18.48-1.77,33.626-6.78c0,0-30.556,9.232-35.857,9.232l-2.742-5.564c0,0-3.557,6.009-4.282,6.454
	C301.089,347.88,277.484,337.313,277.484,337.313"/>
<path fill="#E1FFFF" d="M254.964,638.479c0,0-1.701-6.979-8.482-6.813c-6.783,0.165-6.567,10.594-6.567,10.594
	s-6.913,1.189-5.146,7.658c1.767,6.468,8.586,3.707,8.586,3.707s1.613,5.928,5.97,4.409s4.124-7.789,4.124-7.789
	s6.999,5.235,9.142-3.329C264.733,638.352,254.964,638.479,254.964,638.479"/>
<path fill="#E1FFFF" d="M410.924,646.22c0,0-11.923-4.137-6.078-13.265c5.844-9.129,12.985,4.057,13.731,6.341
	c0.745,2.285,0.504-7.944,8.224-7.311c7.719,0.633,5.617,8.864,5.617,8.864s17.695-4.14,20.85,7.708
	c3.153,11.847-6.896,13.152-6.896,13.152s-3.694,12.524-13.612,12.807c-9.916,0.282-11.923-8.361-11.923-8.361
	s-7.186,7.329-14.323-1.847C399.374,655.131,410.924,646.22,410.924,646.22"/>
<path fill="#E1FFFF" d="M453.005,668.739c0,0,3.678-10.06,9.364-1.72c5.155-3.688,8.969,3.043,3.968,5.519
	c0,0,3.622,9.249-7.097,8.967c-7.854-0.207-6.961-7.138-6.961-7.138S446.438,668.935,453.005,668.739"/>
<path fill="#FFDC31" d="M312.76,587.451c0,0-12.448,10.672-20.261,17.127c0,0,12.435,0.64,16.551,0.447
	c0,0-4.533,23.969-5.113,28.468c0,0,13.617-6.67,16.114-9.237c0,0,10.408,35.041,12.692,41.595c0,0,17.562-39.139,18.196-42.187
	c0,0,16.3,11.73,19.081,12.569c0,0-9.1-32.107-11.026-33.979c0,0,12.801,3.397,14.963,3.436c0,0-17.608-18.396-19.441-19.114
	C352.683,585.856,312.76,587.451,312.76,587.451"/>
<polygon fill="#FFF2B3" points="321.207,592.873 315.45,603.926 327.605,601.881 335.777,623.636 343.053,602.669 353.533,603.538 
	344.488,591.541 "/>
<path fill="#FFE54D" d="M375.973,610.079c0,0,5.499,1.154,6.536,2.929c1.038,1.772,1.272,4.754,1.272,4.754
	S376.229,613.595,375.973,610.079"/>
<path fill="#FFE54D" d="M381.633,622.556c0,0,5.809,3.386,6.823,4.624c1.015,1.239,1.489,4.853,1.489,4.853
	s-5.891-0.807-6.525-2.922C382.784,626.995,381.633,622.556,381.633,622.556"/>
<path fill="#FFE54D" d="M291.492,612.391c0,0-3.305,0.083-5.521,1.107c-2.217,1.025-3.55,7.354-3.55,7.354s7.834-2.602,8.368-3.015
	C291.324,617.425,291.492,612.391,291.492,612.391"/>
<path fill="#EFCA2E" d="M315.397,349.728c-24.706,0.346-80.512,21.586-79.427,84.603c1.085,63.017,49.058,88.647,58.123,115.491
	c0,0,49.362,3.795,64.416-1.325c0,0,5.143-15.386,16.572-30.602c11.43-15.216,39.307-45.162,36.05-93.803
	C408.546,385.439,368.247,348.989,315.397,349.728"/>
<path fill="#FFED08" d="M313.65,354.945c-22.607,0.315-71.424,23.169-70.432,80.831c0.993,57.662,44.89,81.114,53.184,105.678
	c0,0,45.168,3.473,58.942-1.213c0,0,4.707-14.077,15.165-28.001c10.458-13.923,35.967-41.324,32.988-85.833
	C401.129,391.039,362.007,354.268,313.65,354.945"/>
<path fill="#FFFFFF" d="M318.412,364.888c-34.009-1.367-68.151,36.375-67.13,54.531s47.194,11.647,59.346,2.499
	c12.154-9.149,44.704,9.73,66.433,8.23C398.792,428.649,385.957,367.602,318.412,364.888"/>
<path fill="#4C492F" d="M358.199,468.246c-8.623-3.119-16.625,6.069-21.95,12.344c-1.225-5.178-4.255-9.577-10.326-9.393
	c-6.17,0.187-11.297,5.401-14.062,10.734c-4.68-9.127-11.491-16.199-22.781-12.994c-8.418,2.391-13.065,8.737-10.868,17.378
	c2.174,8.551,8.854,15.982,14.604,22.383c4.664,5.191,8.706,10.484,11.536,16.905c3.054,6.931,4.235,14.468,5.023,21.941
	c0.147,1.388,2.272,1.317,2.183-0.101c-0.654-10.558-3.058-20.7-8.546-29.824c-4.625-7.692-11.616-13.688-16.771-21.021
	c-4.032-5.736-9.38-14.878-3.733-21.244c3.877-4.367,11.896-6.102,17.166-3.994c5.544,2.219,8.739,8.675,11.07,13.769
	c0.374,0.817,1.792,1.314,2.227,0.209c1.929-4.904,5.377-9.172,10.389-11.119c6.732-2.614,10.225,3.334,10.926,9.18
	c0.118,0.989,1.374,1.637,2.116,0.779c5.717-6.607,17.979-21.425,26.248-9.57c6.069,8.699-2.291,20.527-7.906,26.821
	c-5.592,6.27-12.311,11.404-16.234,19.003c-2.153,4.171-2.994,8.844-3.396,13.473c-0.468,5.385-1.322,10.443,1.441,15.385
	c0.784,1.402,2.737,0.083,2.069-1.304c-2.948-6.118-1.302-15.136,0.355-21.486c1.362-5.212,4.474-9.613,8.052-13.536
	c6.556-7.185,15.134-13.747,18.363-23.301C368.122,481.598,367.304,471.54,358.199,468.246"/>
<path fill="#3F3F3F" d="M302.592,582.289c0,0,5.388,16.1,29.698,16.104c24.311,0.004,27.043-17.457,27.043-17.457L302.592,582.289z"
	/>
<path fill="#515151" d="M303.867,574.27c0,0-8.898,3.668-6.483,7.349c2.413,3.681,18.37,5.016,34.332,4.425
	c15.963-0.59,30.858-1.317,32.152-6.206s-17.531-8.251-25.923-8.504C329.553,571.081,303.867,574.27,303.867,574.27"/>
<path fill="#515151" d="M309.099,565.074c0,0-16.659,0.741-15.764,6.874c0.894,6.134,8.363,4.208,28.65,3.693
	c20.286-0.515,41.122,2.411,43.03-5.045c1.909-7.457-12.809-7.188-20.24-7.423C337.342,562.938,309.099,565.074,309.099,565.074"/>
<path fill="#515151" d="M300.557,556.993c-4.984,1.166-8.866,3.431-7.965,7.639c0.902,4.209,5.616,2.409,16.292,2.101
	c10.678-0.31,40.734-0.062,47.531-0.501c6.796-0.44,9.645-2,9.775-4.871c0.129-2.872-6.679-6.076-22.683-5.17
	C327.504,557.096,300.557,556.993,300.557,556.993"/>
<path fill="#515151" d="M326.235,548.267c-16.713-0.517-35.173-1.645-35.172,5.818c0.002,7.462,23.228,4.678,37.174,4.791
	c13.947,0.112,34.667,1.823,35.919-7.888C365.104,543.648,345.895,548.875,326.235,548.267"/>
<path fill="#999999" d="M326.547,549.335c-12.771-0.396-28.222-1.2-28.465,4.498c-0.169,3.932,19.903,1.2,30.561,1.286
	c10.657,0.086,28.98,1.221,29.205-4.373C358.074,545.096,341.57,549.8,326.547,549.335"/>
<path fill="#999999" d="M328.064,558.153c-11.75-0.492-25.97-1.354-26.119,3.313c-0.103,3.221,18.319,1.245,28.121,1.455
	c9.803,0.21,26.667,1.381,26.801-3.2C357.001,555.093,341.887,558.73,328.064,558.153"/>
<path fill="#999999" d="M326.223,566.525c-11.75-0.491-24.469-0.506-24.587,2.288c-0.136,3.219,16.087,0.881,25.89,1.091
	c9.802,0.21,27.375,1.153,27.5-1.811C355.144,565.263,340.044,567.104,326.223,566.525"/>
<path fill="#999999" d="M326.853,573.86c-10.75-0.362-22.392-0.238-22.53,2.553c-0.16,3.217,14.715,0.703,23.685,0.807
	c8.97,0.103,25.044,0.853,25.19-2.108C353.34,572.284,339.499,574.287,326.853,573.86"/>
<path fill="#FFDC31" d="M234.204,489.07c0,0,16.354,30.732,29.721,42.718C263.924,531.788,237.96,516.105,234.204,489.07"/>
<path fill="#FFDC31" d="M207.426,494.012c0,0,22.621,45.622,55.417,63.477C262.843,557.488,216.673,542.087,207.426,494.012"/>
<path fill="#FFDC31" d="M381.924,531.932c0,0,19.823-23.109,25.986-44.37C407.91,487.562,405.341,515.368,381.924,531.932"/>
<path fill="#FFDC31" d="M380.778,559.148c0,0,35.387-16.465,47.651-61.899C428.43,497.249,408.358,543.187,380.778,559.148"/>
<path fill="#B5EDF7" d="M375.012,574.154c-0.878,3.438-1.186,6.868-3.226,9.894c-0.744,1.104,0.714,2.459,1.606,1.383
	c2.469-2.98,3.405-7.117,3.703-10.896C377.202,573.186,375.354,572.813,375.012,574.154"/>
<path fill="#B5EDF7" d="M381.77,578.867c-0.215-1.198-1.904-1.363-2.178-0.102c-0.21,0.97-0.25,1.972-0.431,2.95
	c-0.242,1.299-0.698,2.492-1.164,3.722c-0.482,1.27,1.197,2.077,1.889,0.913C381.119,584.273,382.207,581.313,381.77,578.867"/>
<path fill="#B5EDF7" d="M289.262,586.041c-2.058-4.046-3.621-7.852-4.046-12.413c-0.132-1.406-2.058-1.138-2.119,0.187
	c-0.216,4.743,1.721,9.29,4.172,13.254C287.936,588.148,289.847,587.191,289.262,586.041"/>
<path fill="#B5EDF7" d="M282.751,589.266c-2.011-2.793-3.16-5.836-3.3-9.286c-0.058-1.396-2.141-1.177-2.138,0.188
	c0.003,3.811,1.22,7.387,3.627,10.349C281.824,591.602,283.59,590.432,282.751,589.266"/>
<path fill="#54979B" d="M311.718,716.31c-0.002-0.004-0.002-0.009-0.002-0.017C311.716,716.301,311.716,716.306,311.718,716.31"/>
<path fill="#54979B" d="M311.834,717.048h0.002c-0.044-0.21-0.078-0.419-0.106-0.625
	C311.758,716.631,311.792,716.84,311.834,717.048"/>
<path fill="#54979B" d="M312.598,719.19c-0.005-0.009-0.01-0.02-0.015-0.03C312.588,719.171,312.593,719.182,312.598,719.19"/>
<path fill="#54979B" d="M312.525,719.048c-0.019-0.039-0.038-0.08-0.057-0.119C312.487,718.97,312.506,719.009,312.525,719.048"/>
<path fill="#54979B" d="M312.048,717.873c0.113,0.356,0.25,0.701,0.407,1.031c-0.16-0.337-0.294-0.683-0.404-1.031H312.048z"/>
<rect x="-36.528" y="31.851" fill="none" width="712.18" height="712.18"/>
<rect x="47" y="31.851" fill="none" width="712.18" height="712.18"/>
</svg>
