<?xml version="1.0" encoding="utf-8"?>
<!-- Generator: Adobe Illustrator 15.0.0, SVG Export Plug-In . SVG Version: 6.00 Build 0)  -->
<!DOCTYPE svg PUBLIC "-//W3C//DTD SVG 1.1//EN" "http://www.w3.org/Graphics/SVG/1.1/DTD/svg11.dtd">
<svg version="1.1" id="图层_1" xmlns="http://www.w3.org/2000/svg" xmlns:xlink="http://www.w3.org/1999/xlink" x="0px" y="0px"
	 width="2267.72px" height="2267.72px" viewBox="0 0 2267.72 2267.72" enable-background="new 0 0 2267.72 2267.72"
	 xml:space="preserve">
<polygon fill="#B3B3B3" points="1969.352,910.576 1769.914,1187.284 1756.248,1177.447 1955.684,900.738 "/>
<polygon fill="#B3B3B3" points="563.829,1644.975 236.738,2027.861 223.929,2016.902 551.019,1634.014 "/>
<polygon fill="#B3B3B3" points="2001.322,1595.901 1755.852,1186.691 1770.312,1178.042 2015.781,1587.252 "/>
<polygon fill="#B3B3B3" points="561.683,1632.23 966.57,1869.431 958.053,1883.959 553.164,1646.758 "/>
<polygon fill="#B3B3B3" points="1150.564,1122.101 563.829,1644.975 552.339,1632.693 1139.076,1109.82 "/>
<polygon fill="#B3B3B3" points="1720.749,1775.456 1198.197,1687.006 1200.97,1670.367 1723.521,1758.817 "/>
<rect x="990.097" y="1422.215" transform="matrix(-0.673 -0.7396 0.7396 -0.673 1321.8459 3445.666)" fill="#B3B3B3" width="864.913" height="16.874"/>
<polygon fill="#B3B3B3" points="518.1,471.635 1150.696,1109.918 1138.944,1122.002 506.348,483.718 "/>
<polygon fill="#B3B3B3" points="441.149,442.364 525.066,1092.857 508.295,1094.904 424.379,444.411 "/>
<polygon fill="#B3B3B3" points="1799.369,514.625 1139.371,1132.742 1127.881,1120.461 1787.881,502.344 "/>
<polygon fill="#B3B3B3" points="228.011,951.879 424.973,434.605 440.554,441.075 243.594,958.35 "/>
<polygon fill="#B3B3B3" points="1772.31,1172.389 1721.52,1758.333 1704.682,1756.881 1755.473,1170.938 "/>
<path fill="#A65575" d="M1133.8,749.656c99.693,0,189.951,40.41,255.284,105.743c65.332,65.332,105.74,155.589,105.74,255.283
	c0,99.695-40.408,189.951-105.74,255.283c-65.333,65.334-155.591,105.744-255.284,105.744s-189.95-40.41-255.283-105.744
	c-65.333-65.332-105.743-155.588-105.743-255.283c0-99.694,40.41-189.951,105.743-255.284
	C943.85,790.066,1034.106,749.656,1133.8,749.656"/>
<path fill="#FFFFFF" d="M1377.865,866.617c-62.462-62.461-148.753-101.094-244.065-101.094s-181.604,38.633-244.065,101.093
	c-62.46,62.462-101.094,148.752-101.094,244.066s38.634,181.605,101.094,244.066c62.461,62.459,148.753,101.095,244.065,101.095
	s181.604-38.636,244.065-101.095c62.461-62.461,101.094-148.752,101.094-244.066
	C1478.959,1015.369,1440.326,929.078,1377.865,866.617"/>
<polygon fill="#B3B3B3" points="1050.645,522.834 432.17,451.806 433.358,434.969 1051.833,505.998 "/>
<path fill="#DD6F3E" d="M1713.611,1566.203c50.893,0,96.968,20.629,130.319,53.98s53.98,79.428,53.98,130.318
	c0,50.894-20.629,96.969-53.98,130.32s-79.427,53.979-130.319,53.979c-50.891,0-96.968-20.628-130.319-53.979
	s-53.98-79.427-53.98-130.32c0-50.891,20.629-96.967,53.98-130.318S1662.721,1566.203,1713.611,1566.203"/>
<path fill="#FFFFFF" d="M1833.007,1631.106c-30.556-30.555-72.769-49.453-119.396-49.453c-46.626,0-88.84,18.898-119.395,49.453
	c-30.556,30.556-49.454,72.77-49.454,119.396c0,46.626,18.898,88.84,49.454,119.395c30.555,30.555,72.769,49.455,119.395,49.455
	c46.628,0,88.841-18.9,119.396-49.455c30.555-30.555,49.454-72.769,49.454-119.395
	C1882.461,1703.876,1863.562,1661.662,1833.007,1631.106"/>
<path fill="#119891" d="M1199.584,1545.27c34.977,0,66.645,14.178,89.564,37.1c22.925,22.923,37.103,54.59,37.103,89.568
	c0,34.978-14.178,66.644-37.103,89.565c-22.92,22.924-54.588,37.102-89.564,37.102c-34.979,0-66.645-14.178-89.567-37.102
	c-22.923-22.922-37.101-54.59-37.101-89.565c0-34.979,14.178-66.646,37.101-89.568
	C1132.939,1559.447,1164.605,1545.27,1199.584,1545.27"/>
<path fill="#FFFFFF" d="M1278.227,1593.294c-20.125-20.127-47.93-32.575-78.643-32.575s-58.518,12.448-78.645,32.575
	c-20.126,20.125-32.573,47.93-32.573,78.645c0,30.711,12.447,58.518,32.573,78.642c20.127,20.125,47.932,32.574,78.645,32.574
	s58.518-12.449,78.643-32.574c20.126-20.124,32.574-47.931,32.574-78.642C1310.801,1641.224,1298.353,1613.419,1278.227,1593.294"/>
<path fill="#919F54" d="M558.13,1384.372c71.275,0,135.804,28.893,182.514,75.602c46.71,46.709,75.599,111.239,75.599,182.513
	c0,71.274-28.889,135.805-75.599,182.514c-46.71,46.711-111.239,75.601-182.514,75.601s-135.804-28.89-182.514-75.601
	c-46.709-46.709-75.6-111.239-75.6-182.514c0-71.273,28.891-135.804,75.6-182.513
	C422.326,1413.265,486.855,1384.372,558.13,1384.372"/>
<path fill="#FFFFFF" d="M729.72,1470.896c-43.913-43.912-104.58-71.073-171.59-71.073c-67.011,0-127.678,27.161-171.59,71.073
	c-43.913,43.913-71.074,104.581-71.074,171.59c0,67.014,27.161,127.679,71.074,171.591c43.912,43.912,104.579,71.074,171.59,71.074
	c67.01,0,127.677-27.162,171.59-71.074s71.074-104.577,71.074-171.591C800.794,1575.478,773.633,1514.81,729.72,1470.896"/>
<path fill="#5D80A0" d="M1763.082,998.066c50.893,0,96.967,20.629,130.318,53.981c33.354,33.353,53.981,79.427,53.981,130.32
	c0,50.891-20.63,96.967-53.981,130.318s-79.426,53.98-130.318,53.98s-96.968-20.629-130.319-53.98
	c-33.353-33.352-53.98-79.428-53.98-130.318c0-50.893,20.628-96.968,53.98-130.32
	C1666.114,1018.695,1712.189,998.066,1763.082,998.066"/>
<path fill="#FFFFFF" d="M1882.479,1062.971c-30.557-30.555-72.77-49.456-119.396-49.456s-88.841,18.901-119.396,49.456
	c-30.556,30.555-49.456,72.768-49.456,119.396c0,46.627,18.9,88.84,49.456,119.396c30.555,30.554,72.769,49.452,119.396,49.452
	s88.84-18.898,119.396-49.452c30.555-30.557,49.454-72.77,49.454-119.396C1931.933,1135.739,1913.033,1093.526,1882.479,1062.971"/>
<path fill="#DD6F3E" d="M504.166,963.423c34.978,0,66.645,14.178,89.568,37.101c22.923,22.922,37.101,54.59,37.101,89.566
	c0,34.978-14.178,66.645-37.101,89.569c-22.923,22.921-54.59,37.099-89.568,37.099c-34.977,0-66.644-14.178-89.567-37.099
	c-22.922-22.924-37.101-54.591-37.101-89.569c0-34.976,14.179-66.644,37.101-89.566
	C437.522,977.602,469.189,963.423,504.166,963.423"/>
<path fill="#FFFFFF" d="M582.811,1011.448c-20.126-20.126-47.932-32.575-78.645-32.575c-30.711,0-58.517,12.449-78.643,32.575
	c-20.126,20.125-32.574,47.931-32.574,78.643s12.448,58.518,32.574,78.645c20.126,20.125,47.932,32.574,78.643,32.574
	c30.713,0,58.519-12.449,78.645-32.574c20.125-20.127,32.574-47.933,32.574-78.645S602.936,1031.573,582.811,1011.448"/>
<path fill="#119891" d="M440.554,224.764c59.732,0,113.81,24.212,152.954,63.357c39.145,39.144,63.357,93.223,63.357,152.954
	s-24.212,113.809-63.357,152.954c-39.144,39.145-93.223,63.356-152.954,63.356c-59.73,0-113.808-24.213-152.953-63.356
	c-39.145-39.145-63.356-93.223-63.356-152.954s24.211-113.81,63.356-152.954C326.745,248.976,380.824,224.764,440.554,224.764"/>
<path fill="#FFFFFF" d="M582.585,299.045c-36.348-36.348-86.563-58.83-142.031-58.83c-55.466,0-105.681,22.482-142.029,58.83
	c-36.349,36.348-58.831,86.563-58.831,142.03c0,55.467,22.483,105.683,58.831,142.03c36.349,36.348,86.563,58.831,142.029,58.831
	c55.467,0,105.683-22.483,142.031-58.831c36.348-36.347,58.83-86.563,58.83-142.03C641.415,385.608,618.934,335.393,582.585,299.045
	"/>
<path fill="#5D80A0" d="M1051.239,330.115c50.892,0,96.967,20.629,130.319,53.981c33.353,33.353,53.981,79.428,53.981,130.32
	c0,50.891-20.63,96.967-53.981,130.319c-33.353,33.352-79.427,53.981-130.319,53.981c-50.891,0-96.967-20.629-130.319-53.981
	s-53.982-79.428-53.982-130.319c0-50.892,20.63-96.968,53.982-130.32S1000.348,330.115,1051.239,330.115"/>
<path fill="#FFFFFF" d="M1170.634,395.02c-30.555-30.555-72.768-49.455-119.395-49.455c-46.626,0-88.84,18.9-119.395,49.455
	s-49.454,72.769-49.454,119.396s18.899,88.841,49.454,119.396s72.768,49.454,119.395,49.454s88.84-18.899,119.395-49.454
	c30.558-30.555,49.456-72.769,49.456-119.396S1201.191,425.575,1170.634,395.02"/>
<rect x="1302.418" y="392.411" transform="matrix(0.9022 0.4314 -0.4314 0.9022 325.4395 -633.3137)" fill="#B3B3B3" width="513.089" height="16.832"/>
<path fill="#119891" d="M1793.625,250.371c71.275,0,135.805,28.89,182.515,75.6c46.709,46.71,75.6,111.238,75.6,182.514
	c0,71.275-28.891,135.804-75.6,182.513c-46.71,46.71-111.239,75.601-182.515,75.601c-71.274,0-135.803-28.891-182.513-75.601
	s-75.601-111.238-75.601-182.513c0-71.276,28.891-135.804,75.601-182.514S1722.351,250.371,1793.625,250.371"/>
<path fill="#FFFFFF" d="M1965.216,336.894c-43.913-43.912-104.579-71.073-171.591-71.073c-67.01,0-127.678,27.161-171.59,71.073
	c-43.912,43.913-71.073,104.581-71.073,171.591c0,67.011,27.161,127.677,71.073,171.59c43.912,43.913,104.58,71.073,171.59,71.073
	c67.012,0,127.678-27.16,171.591-71.073c43.913-43.913,71.074-104.579,71.074-171.59
	C2036.29,441.475,2009.129,380.807,1965.216,336.894"/>
<path fill-rule="evenodd" clip-rule="evenodd" fill="#A65575" d="M1133.8,1440.951c181.906,0,330.27-148.364,330.27-330.269
	c0-181.907-148.363-330.27-330.27-330.27s-330.269,148.363-330.269,330.27C803.531,1292.587,951.894,1440.951,1133.8,1440.951"/>
<path fill-rule="evenodd" clip-rule="evenodd" fill="#119891" d="M1793.625,732.216c123.227,0,223.73-100.504,223.73-223.732
	c0-123.227-100.504-223.732-223.73-223.732s-223.732,100.505-223.732,223.732C1569.893,631.712,1670.398,732.216,1793.625,732.216"
	/>
<path fill-rule="evenodd" clip-rule="evenodd" fill="#919F54" d="M558.13,1866.219c123.227,0,223.731-100.506,223.731-223.732
	c0-123.226-100.504-223.731-223.731-223.731c-123.228,0-223.732,100.506-223.732,223.731
	C334.398,1765.713,434.902,1866.219,558.13,1866.219"/>
<path fill-rule="evenodd" clip-rule="evenodd" fill="#5D80A0" d="M1051.24,665.725c83.338,0,151.309-67.971,151.309-151.309
	c0-83.338-67.971-151.309-151.309-151.309s-151.309,67.971-151.309,151.309C899.931,597.754,967.902,665.725,1051.24,665.725"/>
<path fill-rule="evenodd" clip-rule="evenodd" fill="#DD6F3E" d="M1713.611,1901.812c83.339,0,151.309-67.972,151.309-151.31
	c0-83.337-67.97-151.31-151.309-151.31s-151.309,67.973-151.309,151.31C1562.303,1833.84,1630.272,1901.812,1713.611,1901.812"/>
<path fill-rule="evenodd" clip-rule="evenodd" fill="#DD6F3E" d="M504.167,1188.704c54.315,0,98.614-44.298,98.614-98.614
	c0-54.315-44.299-98.614-98.614-98.614s-98.615,44.299-98.615,98.614C405.552,1144.406,449.852,1188.704,504.167,1188.704"/>
<path fill-rule="evenodd" clip-rule="evenodd" fill="#119891" d="M440.556,623.38c100.41,0,182.305-81.896,182.305-182.305
	c0-100.411-81.895-182.306-182.305-182.306c-100.411,0-182.306,81.895-182.306,182.306
	C258.25,541.484,340.145,623.38,440.556,623.38"/>
<path fill-rule="evenodd" clip-rule="evenodd" fill="#5D80A0" d="M1763.082,1336.252c84.757,0,153.885-69.13,153.885-153.887
	c0-84.756-69.128-153.884-153.885-153.884c-84.758,0-153.885,69.128-153.885,153.884
	C1609.197,1267.122,1678.324,1336.252,1763.082,1336.252"/>
<path fill-rule="evenodd" clip-rule="evenodd" fill="#119891" d="M1199.584,1770.551c54.314,0,98.614-44.299,98.614-98.613
	c0-54.315-44.3-98.615-98.614-98.615c-54.316,0-98.615,44.3-98.615,98.615C1100.969,1726.252,1145.268,1770.551,1199.584,1770.551"
	/>
<path fill-rule="evenodd" clip-rule="evenodd" fill="#FFFFFF" d="M1621.64,651.575c22.821-16.283,58.943-22.503,87.778-33.867
	c46.326-18.255,25.023-63.53,24.612-106.21h119.19c-0.411,42.68-21.714,87.955,24.609,106.21
	c28.837,11.364,64.961,17.584,87.781,33.867c-41.04,49.273-102.847,80.641-171.986,80.641
	C1724.486,732.216,1662.68,700.848,1621.64,651.575"/>
<path fill-rule="evenodd" clip-rule="evenodd" fill="#FFFFFF" d="M1631.258,662.399c18.703-16.217,55.284-22.605,88.107-34.184
	c34.116-12.035,38.998-64.412,36.279-95.738l76.156-5.378c-2.719,31.324-0.733,87.198,33.385,101.116
	c33.215,13.551,70.303,18.009,91.293,33.663c-39.184,41.585-94.113,68.156-155.263,70.197l-15.542-0.014
	C1724.923,729.937,1670.332,703.605,1631.258,662.399"/>
<path fill-rule="evenodd" clip-rule="evenodd" fill="#119891" d="M1794.251,707.077c-30.904-12.309-69.095-33.534-74.262-78.862
	c17.607-6.211,27.427-23.165,32.435-42.426c13.108-1.503,27.179-2.322,41.827-2.322c14.647,0,28.72,0.819,41.827,2.322
	c5.009,19.261,14.828,36.215,32.435,42.426C1863.347,673.543,1825.156,694.768,1794.251,707.077"/>
<path fill="#FFFFFF" d="M1895.672,451.43c6.531,6.575,10.486,15.791,12.123,25.799c1.43,8.736,1.12,18.154-0.764,26.868
	c-1.939,8.951-5.573,17.333-10.739,23.734c-4.149,5.141-9.265,9.032-15.288,11.048c-8.461,17.482-20.257,32.686-35.1,43.489
	c-14.686,10.689-32.211,17.04-52.279,17.04v-16.947c16.328,0,30.517-5.115,42.352-13.729c13.326-9.699,23.849-23.862,31.243-40.246
	c1.077-2.633,3.456-4.661,6.47-5.15c3.613-0.592,6.795-2.831,9.43-6.097c3.453-4.278,5.952-10.199,7.361-16.717
	c1.461-6.754,1.717-13.97,0.636-20.579c-1.227-7.487-4.107-14.05-8.808-17.844l0.01-0.011c-1.731-1.391-2.914-3.46-3.12-5.847
	c-2.209-24.659-10.958-47.781-27.005-63.818c-13.738-13.731-33.077-22.361-58.568-22.361v-16.946
	c30.384,0,53.694,10.546,70.482,27.325C1882.387,398.709,1892.636,424.249,1895.672,451.43 M1793.625,599.408
	c-20.068,0-37.59-6.35-52.277-17.04c-14.842-10.802-26.638-26.007-35.1-43.489c-6.024-2.016-11.141-5.908-15.291-11.051
	c-5.166-6.402-8.8-14.784-10.735-23.733c-1.885-8.714-2.196-18.133-0.767-26.868c1.639-10.007,5.595-19.223,12.125-25.798
	c3.033-27.179,13.282-52.718,31.562-70.987c16.79-16.779,40.101-27.326,70.483-27.326v16.946c-25.49,0-44.83,8.631-58.568,22.362
	c-15.957,15.948-24.699,38.901-26.964,63.403c-0.089,2.362-1.163,4.674-3.149,6.272c-4.702,3.793-7.582,10.356-8.807,17.841
	c-1.083,6.609-0.828,13.825,0.633,20.579c1.41,6.518,3.907,12.438,7.359,16.718c2.637,3.266,5.819,5.507,9.433,6.099v0.005
	c2.71,0.443,5.152,2.197,6.355,4.893c7.401,16.491,17.965,30.75,31.359,40.498c11.835,8.614,26.022,13.729,42.349,13.729V599.408z"
	/>
<path fill-rule="evenodd" clip-rule="evenodd" fill="#119891" d="M1887.604,455.513c21.712,17.525,14.075,71.804-12.558,76.164
	c-15.201,33.87-43.124,59.258-81.422,59.258c-38.296,0-66.217-25.388-81.42-59.258c-26.634-4.36-34.271-58.643-12.558-76.164
	c4.44-49.642,33.94-93.923,93.978-93.923S1883.156,405.868,1887.604,455.513"/>
<path fill-rule="evenodd" clip-rule="evenodd" fill="#FFFFFF" d="M1792.316,361.61c-39.249,0.847-76.126,57.46-74.069,103.97
	c1.076,24.342-1.402,18.005-5.804,5.09c-2.344-6.872-5.932-13.645-11.351-13.664c-3.823-0.013-6.638,3.383-7.839,5.94
	c-3.074,6.552-9.589,0.008-8.109-11.909c4.616-37.198,42.34-89.665,81.195-94.53c15.429-1.928,40.85-1.961,55.432,0.1
	c38.588,5.45,75.846,57.475,80.433,94.43c1.479,11.916-5.034,18.461-8.11,11.909c-1.2-2.557-4.014-5.953-7.838-5.94
	c-5.418,0.019-9.007,6.792-11.35,13.664c-4.402,12.915-6.48,19.252-5.404-5.09c2.039-46.127-34.656-102.203-73.503-103.948
	L1792.316,361.61z"/>
<path fill-rule="evenodd" clip-rule="evenodd" fill="#FFFFFF" d="M1717.879,462.041c-0.284-17.359,2.181-32.375,9.344-43.339
	c6.932-10.61,14.06-15.884,34.196-10.591c9.776,2.57,21.589,4.074,34.311,4.074c12.779,0,24.643-1.519,34.444-4.111
	c17.553-4.641,22.086-0.162,29.169,9.353c8.435,11.332,11.79,26.829,11.132,44.397c40.271-48.873-2.009-113.528-76.654-113.554
	S1702.1,411.273,1717.879,462.041"/>
<path fill-rule="evenodd" clip-rule="evenodd" fill="#FFFFFF" d="M1753.852,354.435c19.59-6.947,44.859-25.146,36.787-47.091
	c15.659,1.475,37.193,41.178-5.603,68.229C1742.237,402.623,1729.235,390.171,1753.852,354.435"/>
<path fill-rule="evenodd" clip-rule="evenodd" fill="#FFFFFF" d="M1775.741,348.77c25.685,0.297,46.959-5.083,44.891-35.692
	c12.66,4.674,23.545,51.896-26.766,63.438C1743.553,388.058,1736.605,371.195,1775.741,348.77"/>
<path fill-rule="evenodd" clip-rule="evenodd" fill="#FFFFFF" d="M1051.239,387.744c37.582-15.741,65.51,34.323,83.539,65.668
	c23.11,40.177,35.177,76.877-3.771,109.36c-16.499,13.789-40.875,23.008-74.937,24.47l0.006,0.217h-9.672l0.003-0.217
	c-113.445-4.864-111.345-78.632-77.514-137.38C989.423,414.213,1016.566,373.223,1051.239,387.744"/>
<path fill-rule="evenodd" clip-rule="evenodd" fill="#FFFFFF" d="M931.554,606.985c16.238-10.414,40.456-14.781,59.966-22.469
	c32.854-12.947,17.746-45.056,17.454-75.324h84.529c-0.29,30.268-15.399,62.377,17.455,75.324
	c19.511,7.688,43.727,12.055,59.967,22.469c-27.677,35.732-70.992,59.213-119.686,59.213
	C1002.544,666.198,959.23,642.717,931.554,606.985"/>
<path fill-rule="evenodd" clip-rule="evenodd" fill="#5D80A0" d="M938.107,614.586c12.314-11.344,43.244-15.843,62.451-22.618
	c24.195-8.535,17.094-31.594,15.165-53.81h71.03c-1.927,22.216-9.03,45.275,15.166,53.81c18.533,6.537,44.401,11.055,62.373,23.248
	c-23.03,31.81-67.643,48.907-112.796,50.786C1002.441,668.043,963.58,640.984,938.107,614.586"/>
<path fill="#FFFFFF" d="M1123.61,466.592c4.63,4.664,7.437,11.199,8.598,18.297c1.015,6.196,0.794,12.875-0.543,19.055
	c-1.373,6.347-3.951,12.292-7.615,16.832c-2.943,3.646-6.57,6.405-10.843,7.835c-6,12.399-14.365,23.182-24.891,30.843
	c-10.416,7.581-22.844,12.084-37.077,12.084V559.52c11.581,0,21.642-3.628,30.035-9.737c9.451-6.878,16.914-16.924,22.158-28.542
	c0.763-1.868,2.451-3.306,4.588-3.653c2.562-0.42,4.82-2.008,6.688-4.323c2.449-3.035,4.22-7.233,5.221-11.856
	c1.036-4.79,1.216-9.909,0.449-14.596c-0.868-5.309-2.912-9.963-6.245-12.654l0.005-0.007c-1.227-0.988-2.065-2.454-2.211-4.147
	c-1.566-17.487-7.772-33.885-19.152-45.259c-9.743-9.738-23.458-15.858-41.536-15.858v-12.018c21.548,0,38.079,7.479,49.986,19.378
	C1114.188,429.204,1121.456,447.315,1123.61,466.592 M1051.239,571.538L1051.239,571.538c-14.232,0-26.66-4.503-37.076-12.084
	c-10.526-7.661-18.891-18.444-24.892-30.843c-4.273-1.43-7.9-4.189-10.844-7.837c-3.663-4.54-6.241-10.486-7.613-16.832
	c-1.337-6.18-1.557-12.859-0.544-19.054c1.162-7.098,3.968-13.633,8.598-18.296c2.152-19.275,9.421-37.388,22.385-50.343
	c11.906-11.901,28.438-19.38,49.986-19.38v12.018c-18.078,0-31.794,6.121-41.537,15.859c-11.317,11.31-17.516,27.589-19.122,44.965
	c-0.064,1.676-0.826,3.314-2.234,4.448c-3.335,2.69-5.377,7.344-6.246,12.654c-0.767,4.687-0.587,9.805,0.45,14.595
	c1,4.622,2.771,8.821,5.219,11.854c1.869,2.318,4.126,3.906,6.689,4.326v0.003c1.922,0.315,3.654,1.559,4.508,3.471
	c5.249,11.695,12.74,21.808,22.239,28.721c8.393,6.109,18.455,9.737,30.034,9.737V571.538z"/>
<path fill-rule="evenodd" clip-rule="evenodd" fill="#5D80A0" d="M1117.889,469.487c15.398,12.428,9.982,50.923-8.907,54.015
	c-10.78,24.021-30.582,42.027-57.742,42.027c-27.16,0-46.961-18.006-57.743-42.027c-18.889-3.092-24.305-41.589-8.906-54.015
	c3.15-35.206,24.071-66.61,66.649-66.61C1093.816,402.877,1114.734,434.279,1117.889,469.487"/>
<path fill-rule="evenodd" clip-rule="evenodd" fill="#FFFFFF" d="M1050.311,402.892c-27.834,0.601-53.988,40.751-52.529,73.736
	c0.763,17.263-0.994,12.769-4.117,3.609c-1.661-4.872-4.206-9.677-8.05-9.69c-2.71-0.009-4.706,2.399-5.557,4.213
	c-2.181,4.646-6.802,0.005-5.752-8.446c3.275-26.381,30.026-63.589,57.582-67.041c10.943-1.366,28.971-1.39,39.313,0.071
	c27.366,3.866,53.79,40.761,57.042,66.97c1.049,8.45-3.571,13.092-5.752,8.446c-0.849-1.814-2.847-4.222-5.557-4.213
	c-3.843,0.013-6.388,4.818-8.05,9.69c-3.123,9.16-4.596,13.654-3.833-3.609c1.446-32.714-24.578-72.483-52.127-73.719
	L1050.311,402.892z"/>
<path fill-rule="evenodd" clip-rule="evenodd" fill="#FFFFFF" d="M997.52,474.118c-1.305-80.047,110.899-71.512,108.221-0.154
	c28.561-34.662-1.425-80.514-54.363-80.533C998.439,393.413,986.33,438.115,997.52,474.118"/>
<path fill-rule="evenodd" clip-rule="evenodd" fill="#FFFFFF" d="M1052.731,402.908c32.549,0,58.935,15.956,58.935,35.638
	c0,19.681-26.386,35.637-58.935,35.637c-32.548,0-58.934-15.956-58.934-35.637C993.797,418.864,1020.183,402.908,1052.731,402.908"
	/>
<path fill-rule="evenodd" clip-rule="evenodd" fill="#FFFFFF" d="M377.676,1774.744c24.773-14.774,60.29-21.399,89.101-32.752
	c50.257-19.804,27.146-68.923,26.699-115.224h129.307c-0.446,46.301-23.558,95.42,26.699,115.224
	c28.813,11.353,64.328,17.978,89.102,32.752c-40.718,55.463-106.376,91.475-180.454,91.475
	C484.051,1866.219,418.393,1830.207,377.676,1774.744"/>
<path fill-rule="evenodd" clip-rule="evenodd" fill="#FFFFFF" d="M387.002,1786.592c21.359-14.811,57.699-21.606,90.564-33.2
	c37.013-13.057,42.309-69.878,39.359-103.862l82.619-5.837c-2.949,33.982-0.793,94.599,36.219,109.699
	c33.37,13.612,70.343,18.768,93.713,32.941c-39.459,46.954-97.856,77.449-163.432,79.73l-16.206-0.014
	C484.536,1863.667,426.383,1833.31,387.002,1786.592"/>
<path fill-rule="evenodd" clip-rule="evenodd" fill="#919F54" d="M558.809,1838.946c-33.528-13.354-74.961-36.379-80.564-85.555
	c19.1-6.737,29.753-25.131,35.187-46.026c14.22-1.632,29.484-2.521,45.377-2.521c15.891,0,31.156,0.889,45.375,2.521
	c5.434,20.896,16.087,39.289,35.188,46.026C633.767,1802.567,592.336,1825.592,558.809,1838.946"/>
<path fill="#FFFFFF" d="M668.837,1561.603c7.083,7.134,11.375,17.132,13.153,27.988c1.55,9.478,1.214,19.695-0.832,29.149
	c-2.102,9.709-6.044,18.802-11.648,25.748c-4.503,5.577-10.051,9.798-16.587,11.984c-9.178,18.967-21.975,35.461-38.076,47.182
	c-15.934,11.597-34.945,18.486-56.717,18.486v-18.386c17.713,0,33.106-5.551,45.945-14.896
	c14.457-10.521,25.872-25.887,33.896-43.661c1.167-2.857,3.748-5.055,7.017-5.587c3.92-0.642,7.372-3.072,10.231-6.612
	c3.747-4.643,6.457-11.066,7.986-18.137c1.586-7.328,1.862-15.16,0.688-22.328c-1.329-8.123-4.455-15.241-9.553-19.357l0.009-0.012
	c-1.877-1.51-3.16-3.754-3.384-6.343c-2.397-26.751-11.888-51.836-29.297-69.236c-14.905-14.894-35.884-24.257-63.538-24.257
	v-18.384c32.962,0,58.25,11.44,76.463,29.643C654.424,1504.407,665.543,1532.115,668.837,1561.603 M558.13,1722.141
	c-21.771,0-40.782-6.89-56.715-18.486c-16.102-11.719-28.898-28.215-38.078-47.182c-6.537-2.189-12.086-6.409-16.589-11.988
	c-5.604-6.944-9.546-16.04-11.646-25.748c-2.046-9.453-2.383-19.673-0.831-29.147c1.776-10.856,6.068-20.854,13.152-27.986
	c3.291-29.487,14.41-57.193,34.241-77.013c18.214-18.204,43.504-29.645,76.466-29.645v18.384c-27.654,0-48.635,9.363-63.54,24.259
	c-17.313,17.302-26.793,42.205-29.252,68.786c-0.097,2.563-1.263,5.068-3.417,6.803c-5.1,4.114-8.225,11.234-9.554,19.355
	c-1.174,7.17-0.898,15,0.687,22.326c1.53,7.07,4.24,13.494,7.985,18.137c2.86,3.544,6.313,5.975,10.233,6.616l-0.001,0.004
	c2.94,0.482,5.589,2.384,6.895,5.31c8.029,17.889,19.49,33.359,34.02,43.937c12.839,9.343,28.231,14.894,45.944,14.894V1722.141z"/>
<path fill-rule="evenodd" clip-rule="evenodd" fill="#919F54" d="M660.084,1566.032c23.556,19.011,15.271,77.897-13.625,82.626
	c-16.49,36.745-46.783,64.29-88.329,64.29c-41.547,0-71.837-27.545-88.331-64.29c-28.895-4.729-37.18-63.619-13.624-82.626
	c4.819-53.855,36.823-101.895,101.955-101.895C623.261,1464.138,655.26,1512.174,660.084,1566.032"/>
<path fill-rule="evenodd" clip-rule="evenodd" fill="#FFFFFF" d="M556.71,1464.16c-42.58,0.918-82.587,62.336-80.357,112.795
	c1.167,26.405-1.518,19.531-6.296,5.519c-2.541-7.453-6.435-14.803-12.313-14.823c-4.147-0.013-7.201,3.671-8.503,6.446
	c-3.335,7.106-10.402,0.007-8.799-12.92c5.009-40.356,45.932-97.276,88.086-102.554c16.739-2.091,44.317-2.127,60.136,0.108
	c41.864,5.913,82.284,62.353,87.259,102.445c1.605,12.925-5.463,20.026-8.798,12.92c-1.302-2.775-4.356-6.459-8.502-6.446
	c-5.88,0.021-9.773,7.37-12.314,14.823c-4.777,14.013-7.03,20.887-5.863-5.519c2.211-50.045-37.597-110.88-79.741-112.773
	L556.71,1464.16z"/>
<path fill-rule="evenodd" clip-rule="evenodd" fill="#FFFFFF" d="M475.953,1573.113c-0.307-18.83,2.368-35.123,10.137-47.018
	c7.52-11.51,15.254-17.231,37.1-11.489c10.608,2.788,23.421,4.419,37.221,4.419c13.866,0,26.734-1.646,37.37-4.459
	c19.041-5.034,23.959-0.175,31.643,10.147c9.153,12.294,12.792,29.106,12.076,48.164c43.689-53.021-2.178-123.162-83.159-123.191
	C477.36,1449.658,458.834,1518.038,475.953,1573.113"/>
<path fill="#FFFFFF" d="M557.428,1639.494c23.98-3.697,39.529,2.816,48.772,9.926c0.711,0.551,1.341,1.105,1.886,1.669
	c26.228,15.044,33.717-56.587,32.061-90.503c-0.992-27.779,22.523-4.89,13.594,8.008c-8.929,12.896-9.991,31.835-6.631,77.887
	c3.361,46.054-54.392,89.655-86.139,89.655c-0.927,0-1.824-0.028-2.695-0.081c-0.281,0.017-0.563,0.032-0.848,0.045v-39.963
	c0.278-0.029,0.561-0.046,0.848-0.046c6.562,0,11.054,8.5,17.788,6.259c16.102-5.362,23.299-15.386,23.337-26.551
	c0.049-15-20.964-22.139-41.973-22.042V1639.494z M506.762,1651.089c0.545-0.563,1.175-1.118,1.887-1.669
	c9.243-7.109,24.794-13.623,48.776-9.926h0.003v14.263c-20.47,0.094-40.936,7.057-41.92,20.325
	c-0.838,11.297,8.025,22.602,24.944,28.253c6.456,2.16,10.849-5.522,16.976-6.198v39.963c-0.603,0.023-1.219,0.036-1.848,0.036
	c-31.747,0-89.5-43.602-86.139-89.655c3.36-46.052,2.298-64.99-6.631-77.887c-8.928-12.897,14.586-35.787,13.595-8.008
	C474.748,1594.502,480.534,1666.133,506.762,1651.089"/>
<path fill-rule="evenodd" clip-rule="evenodd" fill="#FFFFFF" d="M1216.68,1396.757c26.812-65.97,222.84-540.312-82.056-540.312
	s-115.335,472.811-81.624,540.312H1216.68z"/>
<path fill-rule="evenodd" clip-rule="evenodd" fill="#FFFFFF" d="M880.318,1322.384c33.587-24.104,86.933-33.268,129.493-50.036
	c68.212-26.88,36.844-93.547,36.237-156.388h175.501c-0.605,62.841-31.974,129.508,36.238,156.388
	c42.56,16.769,95.906,25.933,129.496,50.036c-60.585,72.463-151.646,118.567-253.483,118.567
	C1031.961,1440.951,940.901,1394.847,880.318,1322.384"/>
<path fill-rule="evenodd" clip-rule="evenodd" fill="#A65575" d="M895.791,1338.401c29.051-25.316,88.702-35.032,132.786-50.584
	c50.234-17.72,35.488-65.597,31.485-111.719h147.473c-4.003,46.122-18.396,93.999,31.486,111.719
	c42.904,15.242,97.683,24.305,133.594,50.105c-42.008,46.166-125.735,101.255-233.604,103.223
	C1031.14,1443.112,934.611,1388.794,895.791,1338.401"/>
<path fill="#FFFFFF" d="M1285.882,1026.643c9.634,9.948,15.479,23.681,17.914,38.548c2.146,13.103,1.683,27.222-1.142,40.275
	c-2.911,13.454-8.391,26.076-16.193,35.743c-6.162,7.635-13.73,13.468-22.632,16.621c-12.565,25.71-30.011,48.076-51.926,64.025
	c-21.95,15.978-48.13,25.467-78.104,25.467v-28.792c23.617,0,44.132-7.395,61.233-19.842c19.322-14.063,34.599-34.628,45.354-58.435
	c1.829-4.475,5.873-7.919,10.992-8.751c4.817-0.79,9.108-3.836,12.701-8.287c4.891-6.061,8.441-14.5,10.458-23.822
	c2.104-9.722,2.472-20.099,0.918-29.592c-1.732-10.583-5.75-19.819-12.277-25.085l0.015-0.019c-2.939-2.365-4.949-5.878-5.3-9.934
	c-3.214-35.881-15.918-69.5-39.209-92.777c-19.884-19.871-47.907-32.362-84.886-32.362v-28.79
	c45.292,0,80.063,15.745,105.129,40.797C1266.02,948.706,1281.271,986.453,1285.882,1026.643 M1133.8,1247.321
	c-29.973,0-56.152-9.489-78.102-25.467c-21.914-15.949-39.361-38.315-51.928-64.025c-8.903-3.153-16.471-8.987-22.634-16.625
	c-7.801-9.666-13.28-22.289-16.191-35.742c-2.823-13.054-3.287-27.171-1.142-40.274c2.435-14.868,8.281-28.6,17.914-38.546
	c4.606-40.186,19.858-77.934,46.95-105.01c25.067-25.052,59.841-40.799,105.133-40.799v28.79c-36.979,0-65.006,12.491-84.89,32.365
	c-23.139,23.125-35.826,56.457-39.139,92.072c-0.152,4.013-1.976,7.94-5.35,10.653c-6.526,5.265-10.545,14.501-12.278,25.087
	c-1.553,9.491-1.186,19.867,0.917,29.589c2.017,9.323,5.565,17.762,10.455,23.821c3.595,4.453,7.887,7.501,12.703,8.291
	l-0.001,0.007c4.606,0.753,8.755,3.734,10.799,8.314c10.768,23.99,26.114,44.718,45.552,58.865
	c17.101,12.447,37.616,19.842,61.232,19.842V1247.321z"/>
<path fill-rule="evenodd" clip-rule="evenodd" fill="#A65575" d="M1272.178,1033.525c31.97,25.803,20.726,105.725-18.492,112.146
	c-22.383,49.871-63.497,87.253-119.886,87.253c-56.389,0-97.501-37.382-119.886-87.253c-39.217-6.421-50.462-86.348-18.491-112.147
	c6.541-73.094,49.978-138.295,138.377-138.295S1265.629,960.426,1272.178,1033.525"/>
<path fill-rule="evenodd" clip-rule="evenodd" fill="#FFFFFF" d="M1131.872,895.26c-57.79,1.246-112.09,84.605-109.063,153.089
	c1.584,35.842-2.062,26.51-8.546,7.493c-3.449-10.117-8.735-20.091-16.712-20.119c-5.628-0.019-9.772,4.981-11.54,8.747
	c-4.527,9.647-14.119,0.01-11.942-17.536c6.799-54.773,62.34-132.026,119.553-139.188c22.718-2.838,60.147-2.888,81.62,0.146
	c56.818,8.027,111.678,84.63,118.433,139.043c2.177,17.545-7.416,27.183-11.942,17.536c-1.768-3.766-5.912-8.766-11.539-8.747
	c-7.979,0.028-13.265,10.002-16.713,20.119c-6.484,19.017-9.543,28.349-7.959-7.493c3.003-67.921-51.027-150.488-108.227-153.057
	L1131.872,895.26z"/>
<path fill-rule="evenodd" clip-rule="evenodd" fill="#FFFFFF" d="M1022.267,1043.137c-2.707-166.192,230.25-148.47,224.687-0.32
	c59.297-71.963-2.957-167.162-112.866-167.201C1024.176,875.578,999.033,968.387,1022.267,1043.137"/>
<path fill-rule="evenodd" clip-rule="evenodd" fill="#FFFFFF" d="M1209.614,942.604c70.675,55.491,105.174,124.727,77.057,154.64
	c-28.118,29.916-108.204,9.181-178.879-46.311c-70.674-55.492-105.175-124.728-77.057-154.642
	C1058.851,866.378,1138.939,887.112,1209.614,942.604"/>
<path fill-rule="evenodd" clip-rule="evenodd" fill="#FFFFFF" d="M1025.348,947.637c-30.068,35.62-15.139,114.517-3.179,117.121
	c9.825-35.839,20.219-50.639,50.288-86.258c30.068-35.619,70.559-40.126,58.598-42.73
	C1119.094,933.164,1055.417,912.019,1025.348,947.637"/>
<path fill-rule="evenodd" clip-rule="evenodd" fill="#FFFFFF" d="M425.979,1150.184c10.625-6.753,26.394-9.608,39.108-14.62
	c21.499-8.472,11.613-29.484,11.422-49.29h55.315c-0.191,19.806-10.078,40.818,11.421,49.29c12.715,5.012,28.484,7.867,39.109,14.62
	c-18.03,23.424-46.344,38.521-78.188,38.521C472.323,1188.705,444.009,1173.607,425.979,1150.184"/>
<path fill-rule="evenodd" clip-rule="evenodd" fill="#FFFFFF" d="M430.139,1155.235c9.005-6.752,25.073-9.684,39.563-14.796
	c15.834-5.584,18.1-29.892,16.838-44.43l35.343-2.496c-1.262,14.536-0.34,40.468,15.494,46.926
	c14.695,5.995,31.024,8.155,40.956,14.639c-17.372,19.81-42.55,32.597-70.732,33.562l-7.034-0.006
	C472.527,1187.626,447.472,1174.916,430.139,1155.235"/>
<path fill="#FFFFFF" d="M551.524,1058.397c3.031,3.051,4.867,7.328,5.627,11.972c0.663,4.054,0.519,8.426-0.356,12.47
	c-0.898,4.153-2.585,8.043-4.982,11.015c-1.926,2.385-4.3,4.191-7.095,5.127c-3.927,8.113-9.401,15.169-16.289,20.182
	c-6.817,4.961-14.949,7.908-24.262,7.908v-7.864c7.578,0,14.162-2.374,19.654-6.372c6.184-4.501,11.068-11.074,14.5-18.678
	c0.499-1.221,1.604-2.163,3.002-2.39c1.677-0.273,3.154-1.313,4.376-2.83c1.603-1.984,2.762-4.732,3.417-7.758
	c0.678-3.133,0.796-6.483,0.294-9.551c-0.569-3.474-1.906-6.518-4.087-8.28l0.004-0.005c-0.804-0.646-1.352-1.605-1.448-2.713
	c-1.025-11.443-5.085-22.175-12.532-29.618c-6.376-6.372-15.35-10.377-27.18-10.377v-7.865c14.1,0,24.918,4.895,32.709,12.682
	C545.359,1033.93,550.115,1045.782,551.524,1058.397 M504.167,1127.071L504.167,1127.071c-9.314,0-17.446-2.947-24.262-7.908
	c-6.888-5.012-12.362-12.069-16.29-20.182c-2.795-0.936-5.169-2.742-7.095-5.129c-2.398-2.971-4.084-6.862-4.983-11.014
	c-0.875-4.045-1.018-8.416-0.355-12.469c0.76-4.645,2.596-8.922,5.626-11.972c1.408-12.614,6.164-24.467,14.648-32.945
	c7.792-7.787,18.609-12.682,32.71-12.682h0.001v7.865h-0.001c-11.83,0-20.804,4.006-27.181,10.378
	c-7.405,7.401-11.462,18.053-12.514,29.424c-0.04,1.097-0.539,2.169-1.461,2.91c-2.181,1.761-3.518,4.807-4.087,8.28
	c-0.502,3.069-0.384,6.417,0.294,9.551c0.655,3.025,1.813,5.773,3.416,7.759c1.223,1.515,2.701,2.556,4.377,2.83v0.003
	c1.257,0.205,2.391,1.019,2.949,2.27c3.436,7.653,8.337,14.271,14.554,18.795c5.491,3.998,12.077,6.372,19.653,6.372h0.001V1127.071
	z"/>
<path fill-rule="evenodd" clip-rule="evenodd" fill="#DD6F3E" d="M547.78,1060.291c10.077,8.132,6.533,33.324-5.828,35.346
	c-7.054,15.719-20.013,27.501-37.786,27.501c-17.772,0-30.73-11.782-37.786-27.501c-12.36-2.022-15.905-27.215-5.827-35.346
	c2.06-23.038,15.752-43.588,43.613-43.588C532.028,1016.703,545.716,1037.252,547.78,1060.291"/>
<path fill-rule="evenodd" clip-rule="evenodd" fill="#FFFFFF" d="M473.816,1042.515c-3.188,7.223-4.956,15.106-4.631,22.449
	c0.498,11.297-0.651,8.355-2.695,2.361c-1.087-3.187-2.752-6.332-5.267-6.341c-1.774-0.006-3.08,1.57-3.637,2.757
	c-1.426,3.041-4.45,0.004-3.764-5.526c2.182-17.584,9.807-38.21,29.043-41.199c33.145-18.115,67.503,7.451,71.69,41.199
	c0.687,5.53-2.336,8.567-3.763,5.526c-0.557-1.187-1.862-2.763-3.637-2.757c-2.515,0.009-4.18,3.154-5.268,6.341
	c-2.042,5.994-3.006,8.936-2.508-2.361c0.102-2.302-0.244-4.658-0.537-7.032c-4.659,8.336-22.759,7.514-35.243-5.966
	c-3.761-4.06-9.48-11.95-13.98-13.571c-0.134-0.033-0.266-0.068-0.399-0.102c-0.238-0.063-0.471-0.122-0.701-0.178
	c-0.345-0.047-0.622-0.114-0.846-0.196C479.915,1036.217,476.714,1038.328,473.816,1042.515"/>
<path fill="#DD6F3E" d="M536.328,1139.969c-9.72,6.021-20.627,9.396-32.162,9.396c-11.717,0-22.79-3.483-32.626-9.688
	c1.64-0.783,3.118-1.781,4.446-2.957c8.609,5.016,18.149,7.805,28.18,7.805c9.861,0,19.246-2.697,27.739-7.55
	C533.219,1138.165,534.688,1139.177,536.328,1139.969"/>
<path fill="#DD6F3E" d="M573.99,1152.673c-20.783,7.151-44.566,11.21-69.824,11.21c-25.294,0-49.111-4.07-69.916-11.241
	c1.989-1.07,4.177-2.041,6.511-2.946c19.105,5.985,40.629,9.35,63.405,9.35c22.545,0,43.862-3.296,62.82-9.169
	C569.474,1150.731,571.825,1151.646,573.99,1152.673"/>
<path fill="#DD6F3E" d="M538.716,1182.478c-10.902,0.938-21.971,1.305-34.55,1.305c-12.037,0-23.818-0.539-35.245-1.57
	c-4.645-1.779-9.123-3.894-13.4-6.324c15.516,1.992,31.82,3.056,48.645,3.056c17.896,0,32.587-0.728,48.261-2.843
	C548.052,1178.562,543.471,1180.698,538.716,1182.478"/>
<path fill-rule="evenodd" clip-rule="evenodd" fill="#FFFFFF" d="M1600.053,1850.486c15.716-6.779,34.809-10.967,50.865-17.294
	c34.488-13.591,18.629-47.3,18.322-79.075h88.741c-0.307,31.775-16.167,65.484,18.323,79.075
	c16.057,6.327,35.148,10.515,50.862,17.294c-27.726,31.466-68.319,51.325-113.556,51.325S1627.781,1881.954,1600.053,1850.486"/>
<path fill-rule="evenodd" clip-rule="evenodd" fill="#FFFFFF" d="M1607.015,1857.879c14.507-6.419,33.638-10.631,51.308-16.863
	c25.4-8.961,29.035-47.958,27.012-71.279l56.699-4.007c-2.024,23.323-0.546,64.922,24.855,75.286
	c18.066,7.37,37.67,11.128,53.016,17.161c-27.324,26.977-64.861,43.635-106.293,43.635
	C1672.027,1901.812,1634.363,1885.032,1607.015,1857.879"/>
<path fill-rule="evenodd" clip-rule="evenodd" fill="#DD6F3E" d="M1669.95,1833.585c8.465-8.517,12.813-21.796,14.687-35.189
	c6.588-10.195,13.976-21.293,19.633-29.996l17.866-1.263c5.712,8.686,13.387,20.055,20.242,30.49
	c1.7,14.134,5.896,28.133,14.708,36.854c-4.029,19.236-11.025,46.13-22.385,65.86c-6.895,0.961-13.932,1.47-21.09,1.47
	s-14.197-0.509-21.09-1.47C1680.982,1880.304,1673.947,1852.873,1669.95,1833.585"/>
<path fill-rule="evenodd" clip-rule="evenodd" fill="#FFFFFF" d="M1701.037,1901.287c4.154-11.118,6.256-15.165-2.979-25.784
	c-12.832-14.757,0.317-34.94,15.553-34.94s28.563,19.633,15.729,34.39c-9.264,10.651-7.262,14.978-3.162,26.335
	c-4.145,0.344-8.334,0.524-12.566,0.524C1709.376,1901.812,1705.184,1901.629,1701.037,1901.287"/>
<path fill-rule="evenodd" clip-rule="evenodd" fill="#DD6F3E" d="M1713.611,1832.157l-28.789,46.884l-4.637-6.922
	c-4.61-13.565-7.93-27.404-10.235-38.534c7.657-7.704,11.946-19.307,14.081-31.364l58.97-0.138
	c2.013,12.569,6.202,24.596,14.085,32.398c-2.299,10.973-5.563,24.435-10.05,37.64l-4.638,6.92L1713.611,1832.157z"/>
<path fill="#FFFFFF" d="M1789.587,1709.396c4.861,4.896,7.807,11.755,9.025,19.204c1.063,6.506,0.833,13.516-0.571,20.006
	c-1.441,6.662-4.146,12.905-7.993,17.672c-3.089,3.826-6.896,6.723-11.383,8.225c-6.298,13.016-15.08,24.336-26.13,32.379
	c-10.936,7.959-23.984,12.686-38.924,12.686v-12.615c12.156,0,22.72-3.81,31.531-10.224c9.92-7.22,17.755-17.766,23.261-29.964
	c0.802-1.96,2.573-3.469,4.817-3.834c2.688-0.44,5.059-2.106,7.02-4.539c2.572-3.188,4.431-7.595,5.481-12.447
	c1.089-5.028,1.276-10.402,0.472-15.321c-0.912-5.575-3.057-10.459-6.557-13.283l0.007-0.011c-1.288-1.035-2.168-2.573-2.321-4.353
	c-1.646-18.357-8.159-35.573-20.107-47.513c-10.229-10.224-24.626-16.649-43.604-16.649v-12.617
	c22.619,0,39.976,7.853,52.475,20.347C1779.696,1670.144,1787.326,1689.159,1789.587,1709.396 M1713.611,1819.567
	c-14.941,0-27.986-4.727-38.923-12.686c-11.051-8.043-19.832-19.363-26.133-32.379c-4.484-1.502-8.293-4.398-11.384-8.229
	c-3.846-4.765-6.552-11.008-7.992-17.67c-1.404-6.488-1.635-13.501-0.57-20.004c1.22-7.451,4.166-14.311,9.025-19.206
	c2.26-20.235,9.891-39.251,23.498-52.851c12.5-12.492,29.857-20.347,52.479-20.347v12.617c-18.979,0-33.378,6.426-43.607,16.649
	c-11.879,11.874-18.388,28.962-20.074,47.205c-0.066,1.76-0.865,3.48-2.344,4.67c-3.501,2.823-5.646,7.709-6.558,13.282
	c-0.804,4.921-0.616,10.293,0.473,15.323c1.05,4.853,2.908,9.26,5.479,12.445c1.962,2.433,4.332,4.101,7.022,4.541v0.004
	c2.018,0.33,3.837,1.635,4.731,3.644c5.511,12.277,13.375,22.893,23.348,30.15c8.811,6.414,19.374,10.224,31.53,10.224V1819.567z"/>
<path fill-rule="evenodd" clip-rule="evenodd" fill="#DD6F3E" d="M1783.58,1712.434c16.165,13.048,10.479,53.459-9.35,56.705
	c-11.317,25.22-32.105,44.12-60.619,44.12s-49.301-18.9-60.619-44.12c-19.83-3.246-25.516-43.661-9.35-56.705
	c3.308-36.958,25.271-69.928,69.969-69.928S1780.27,1675.474,1783.58,1712.434"/>
<path fill-rule="evenodd" clip-rule="evenodd" fill="#FFFFFF" d="M1712.637,1642.522c-29.221,0.631-56.678,42.78-55.146,77.408
	c0.8,18.123-1.043,13.404-4.322,3.788c-1.743-5.114-4.415-10.159-8.449-10.173c-2.847-0.01-4.941,2.519-5.836,4.423
	c-2.289,4.878-7.139,0.006-6.038-8.866c3.438-27.696,31.521-66.758,60.452-70.38c11.486-1.436,30.413-1.462,41.27,0.074
	c28.729,4.059,56.467,42.793,59.883,70.306c1.102,8.872-3.748,13.744-6.039,8.866c-0.892-1.904-2.988-4.433-5.834-4.423
	c-4.035,0.014-6.705,5.059-8.449,10.173c-3.279,9.616-4.826,14.335-4.023-3.788c1.516-34.346-25.803-76.094-54.725-77.393
	L1712.637,1642.522z"/>
<path fill="#FFFFFF" d="M1713.101,1829.147c-17.454,0.72-31.407-10.995-41.709-23.987c-14.753-18.608-29.548-46.214-19.204-91.618
	c12.026-52.789,4.219-16.648,4.826,1.873c0.498,12.692-0.225,55.774,21.234,77.59c5.414,5.503,15.971,12.85,24.111,13.211
	c3.549-0.381,6.335-4.525,10.132-4.525c0.206,0,0.409,0.015,0.609,0.036c0.2-0.021,0.404-0.036,0.611-0.036
	c3.794,0,6.582,4.145,10.133,4.525c8.138-0.361,18.696-7.708,24.108-13.211c21.459-21.815,20.738-64.897,21.234-77.59
	c0.608-18.521-7.198-54.662,4.827-1.873c10.344,45.404-4.449,73.01-19.205,91.618
	C1744.509,1818.152,1730.555,1829.867,1713.101,1829.147"/>
<path fill-rule="evenodd" clip-rule="evenodd" fill="#FFFFFF" d="M1713.683,1873.593c8.016,0,14.515,8.281,14.515,18.496
	c0,3.346-0.697,6.482-1.917,9.19c-4.179,0.346-8.401,0.532-12.669,0.532c-4.217,0-8.392-0.181-12.521-0.519
	c-1.222-2.71-1.922-5.853-1.922-9.204C1699.169,1881.874,1705.666,1873.593,1713.683,1873.593"/>
<path fill-rule="evenodd" clip-rule="evenodd" fill="#FFFFFF" d="M1657.215,1717.295c11.15-30.061,24.247-46.478,44.143-42.252
	c19.036,12.907,57.506,60.636,88.529,52.077c9.369-38.377-14.816-50.517-17.673-52.304c-1.482-0.929-26.337-35.133-55.638-37.155
	C1689.445,1635.787,1657.669,1663.734,1657.215,1717.295"/>
<path fill-rule="evenodd" clip-rule="evenodd" fill="#FFFFFF" d="M1681.271,1246.008c-20.008-3.663-19.019-26.58-16.542-37.714
	c25.917,13.365,19.666-20.822,14.166-50.699c-7.431-40.362,5.351-88.625,56.891-88.625c29.835-26.733,118.765-4.188,110.057,81.451
	c-2.91,28.605-15.908,94.349,17.938,55.271c2.475,11.134-1.852,24.147-13.436,35.589c5.791,17.204,33.554,18.893,37.883-3.996
	c0.941,33.441-17.124,45.006-33.988,47.256c-5.285,0.703-163.243,0.494-167.67-0.243c-18.557,3.092-48.249-5.567-47.011-49.486
	C1643.889,1257.699,1670.645,1266.756,1681.271,1246.008"/>
<path fill-rule="evenodd" clip-rule="evenodd" fill="#FFFFFF" d="M1644.553,1280.508c15.755-11.16,40.588-15.454,60.425-23.27
	c31.965-12.597,17.265-43.837,16.981-73.287h82.244c-0.284,29.45-14.983,60.69,16.982,73.287
	c19.837,7.815,44.671,12.109,60.425,23.27c-28.227,34.051-70.844,55.744-118.528,55.744
	C1715.396,1336.252,1672.778,1314.559,1644.553,1280.508"/>
<path fill-rule="evenodd" clip-rule="evenodd" fill="#5D80A0" d="M1712.344,1264.488c12.148-4.286,18.924-15.983,22.379-29.274
	c9.047-1.037,18.755-1.604,28.862-1.604c10.003,0,19.614,0.554,28.579,1.57c3.137,13.101,9.341,24.635,20.798,29.309
	c2.251,17.081-7.508,31.279-49.377,52.765C1718.779,1297.467,1709.958,1284.717,1712.344,1264.488"/>
<path fill="#FFFFFF" d="M1833.496,1142.505c4.504,4.535,7.236,10.894,8.364,17.798c0.987,6.026,0.773,12.528-0.527,18.542
	c-1.336,6.174-3.844,11.96-7.409,16.377c-2.864,3.547-6.393,6.232-10.551,7.624c-5.837,12.063-13.977,22.554-24.219,30.006
	c-10.133,7.379-22.225,11.76-36.072,11.76v-11.695c11.266,0,21.057-3.528,29.224-9.474c9.192-6.689,16.455-16.463,21.558-27.77
	c0.744-1.816,2.385-3.215,4.464-3.555c2.493-0.406,4.689-1.952,6.507-4.206c2.384-2.95,4.105-7.037,5.08-11.534
	c1.008-4.66,1.184-9.641,0.437-14.202c-0.845-5.165-2.833-9.694-6.075-12.312l0.005-0.007c-1.193-0.96-2.011-2.388-2.151-4.034
	c-1.525-17.016-7.562-32.971-18.635-44.036c-9.48-9.475-22.823-15.43-40.412-15.43v-11.693c20.965,0,37.049,7.278,48.633,18.855
	C1824.328,1106.125,1831.4,1123.748,1833.496,1142.505 M1763.082,1244.611c-13.85,0-25.938-4.381-36.073-11.758
	c-10.241-7.454-18.381-17.945-24.22-30.008c-4.158-1.392-7.686-4.077-10.55-7.626c-3.565-4.417-6.074-10.203-7.41-16.379
	c-1.3-6.012-1.515-12.512-0.526-18.538c1.129-6.906,3.859-13.264,8.365-17.8c2.094-18.755,9.166-36.378,21.777-48.982
	c11.586-11.577,27.67-18.856,48.637-18.856v11.693c-17.591,0-30.934,5.955-40.415,15.43c-11.011,11.004-17.04,26.843-18.604,43.75
	c-0.062,1.63-0.803,3.226-2.174,4.327c-3.244,2.617-5.23,7.146-6.076,12.312c-0.748,4.56-0.571,9.54,0.437,14.2
	c0.974,4.497,2.696,8.582,5.079,11.536c1.816,2.254,4.014,3.8,6.508,4.206v0.006c1.87,0.306,3.555,1.516,4.385,3.375
	c5.107,11.381,12.397,21.219,21.64,27.943c8.165,5.945,17.956,9.474,29.222,9.474V1244.611z"/>
<path fill-rule="evenodd" clip-rule="evenodd" fill="#5D80A0" d="M1827.928,1145.319c14.982,12.092,9.714,49.547-8.664,52.555
	c-10.489,23.371-29.758,40.891-56.182,40.891c-26.426,0-45.692-17.52-56.182-40.891c-18.378-3.008-23.648-40.464-8.665-52.555
	c3.065-34.253,23.421-64.808,64.847-64.808C1804.51,1080.511,1824.86,1111.064,1827.928,1145.319"/>
<path fill-rule="evenodd" clip-rule="evenodd" fill="#FFFFFF" d="M1762.179,1080.525c-27.082,0.584-52.529,39.648-51.11,71.742
	c0.742,16.796-0.968,12.424-4.004,3.511c-1.617-4.74-4.094-9.415-7.833-9.429c-2.638-0.009-4.579,2.335-5.407,4.1
	c-2.121,4.52-6.616,0.005-5.598-8.218c3.188-25.668,29.216-61.871,56.028-65.227c10.646-1.33,28.187-1.354,38.248,0.068
	c26.626,3.762,52.336,39.66,55.501,65.159c1.02,8.222-3.476,12.737-5.597,8.218c-0.829-1.765-2.769-4.108-5.408-4.1
	c-3.738,0.014-6.217,4.688-7.833,9.429c-3.036,8.913-4.469,13.285-3.728-3.511c1.407-31.829-23.914-70.524-50.72-71.728
	L1762.179,1080.525z"/>
<path fill-rule="evenodd" clip-rule="evenodd" fill="#FFFFFF" d="M1710.813,1149.825c-1.269-77.882,107.901-69.577,105.296-0.148
	c27.788-33.727-1.387-78.339-52.893-78.356C1711.708,1071.301,1699.926,1114.795,1710.813,1149.825"/>
<path fill-rule="evenodd" clip-rule="evenodd" fill="#FFFFFF" d="M1710.813,1149.825c10.335-27.86,22.474-47.372,50.217-43.457
	c17.642,11.965,37.218,47.913,65.969,39.981c8.684-35.57-6.956-34.237-9.604-35.896
	C1814.748,1108.797,1711.688,1046.575,1710.813,1149.825"/>
<path fill-rule="evenodd" clip-rule="evenodd" fill="#5D80A0" d="M1651.422,1288.25c8.708-6.922,31.593-13.788,44.689-17.799
	c-29.503,54.623,47.157,65.801,67.454,46.802c18.781,18.999,92.821,7.491,66.543-47.252c13.48,3.874,35.661,10.76,45.401,17.425
	c-28.085,30.042-68.059,48.826-112.428,48.826C1719.119,1336.252,1679.465,1317.813,1651.422,1288.25"/>
<path fill-rule="evenodd" clip-rule="evenodd" fill="#FFFFFF" d="M1199.584,1587.373c18.939,0,34.295,15.354,34.295,34.295
	s-15.355,34.296-34.295,34.296c-18.942,0-34.297-15.355-34.297-34.296S1180.642,1587.373,1199.584,1587.373"/>
<path fill-rule="evenodd" clip-rule="evenodd" fill="#119891" d="M1199.584,1602.003c23.453,0,42.468,21.866,42.468,48.837
	c0,26.97-19.015,48.834-42.468,48.834c-23.455,0-42.469-21.864-42.469-48.834
	C1157.115,1623.869,1176.129,1602.003,1199.584,1602.003"/>
<path fill-rule="evenodd" clip-rule="evenodd" fill="#FFFFFF" d="M1126.507,1738.151c9.567-7.205,25.189-9.837,37.607-14.729
	c19.514-7.689,10.54-26.761,10.366-44.736h50.205c-0.172,17.976-9.146,37.047,10.367,44.736
	c12.416,4.892,28.039,7.523,37.607,14.731c-18.043,19.897-44.101,32.396-73.076,32.396
	C1170.605,1770.551,1144.549,1758.052,1126.507,1738.151"/>
<path fill-rule="evenodd" clip-rule="evenodd" fill="#FFFFFF" d="M1130.802,1742.595c7.751-7.089,23.445-9.787,37.502-14.746
	c14.37-5.068,16.427-27.132,15.281-40.326l32.078-2.268c-1.146,13.196-0.309,36.73,14.063,42.594
	c14.22,5.802,30.127,7.646,38.885,14.507c-17.789,17.439-42.148,28.195-69.026,28.195
	C1172.828,1770.551,1148.567,1759.891,1130.802,1742.595"/>
<path fill-rule="evenodd" clip-rule="evenodd" fill="#119891" d="M1164.596,1729.099c1.244-0.402,2.482-0.818,3.708-1.25
	c14.37-5.068,16.427-27.132,15.281-40.326l32.077-2.268c-1.145,13.197-0.308,36.73,14.063,42.594
	c2.568,1.049,5.192,1.966,7.817,2.809C1218.117,1740.418,1175.777,1739.115,1164.596,1729.099"/>
<path fill="#FFFFFF" d="M1242.566,1653.385c2.75,2.771,4.416,6.65,5.106,10.866c0.603,3.68,0.473,7.646-0.322,11.318
	c-0.814,3.767-2.347,7.299-4.521,9.998c-1.748,2.164-3.902,3.803-6.439,4.651c-3.565,7.364-8.534,13.77-14.784,18.319
	c-6.188,4.501-13.568,7.177-22.021,7.177v-7.137c6.877,0,12.854-2.155,17.839-5.784c5.613-4.085,10.045-10.053,13.159-16.952
	c0.454-1.11,1.455-1.963,2.726-2.17c1.522-0.249,2.863-1.193,3.972-2.567c1.456-1.803,2.508-4.296,3.101-7.042
	c0.616-2.845,0.724-5.885,0.267-8.669c-0.516-3.155-1.729-5.917-3.709-7.516l0.004-0.004c-0.729-0.587-1.227-1.458-1.313-2.463
	c-0.93-10.388-4.616-20.127-11.375-26.885c-5.787-5.781-13.933-9.415-24.669-9.415v-7.141c12.797,0,22.616,4.443,29.687,11.511
	C1236.971,1631.177,1241.288,1641.935,1242.566,1653.385 M1199.584,1715.715c-8.454,0-15.835-2.676-22.021-7.177
	c-6.253-4.55-11.22-10.955-14.784-18.319c-2.537-0.849-4.692-2.489-6.44-4.654c-2.176-2.696-3.707-6.229-4.521-9.995
	c-0.796-3.675-0.925-7.641-0.323-11.32c0.69-4.214,2.356-8.096,5.106-10.866c1.279-11.448,5.596-22.206,13.295-29.899
	c7.071-7.067,16.891-11.513,29.689-11.513v7.141c-10.738,0-18.884,3.634-24.671,9.418c-6.722,6.719-10.403,16.386-11.358,26.707
	c-0.036,0.995-0.49,1.968-1.324,2.642c-1.981,1.599-3.196,4.36-3.711,7.514c-0.457,2.786-0.349,5.826,0.267,8.669
	c0.593,2.746,1.646,5.241,3.102,7.042c1.107,1.376,2.449,2.32,3.972,2.569c1.142,0.189,2.169,0.927,2.677,2.064
	c3.118,6.945,7.569,12.95,13.21,17.058c4.984,3.629,10.96,5.784,17.838,5.784V1715.715z"/>
<path fill-rule="evenodd" clip-rule="evenodd" fill="#119891" d="M1239.169,1655.104c9.145,7.383,5.93,30.245-5.29,32.083
	c-6.403,14.265-18.163,24.96-34.295,24.96c-16.131,0-27.893-10.695-34.297-24.96c-11.219-1.838-14.436-24.702-5.288-32.085
	c1.87-20.909,14.296-39.56,39.585-39.56C1224.872,1615.542,1237.295,1634.192,1239.169,1655.104"/>
<path fill-rule="evenodd" clip-rule="evenodd" fill="#FFFFFF" d="M1199.032,1615.55c-16.531,0.357-32.065,24.204-31.199,43.794
	c0.453,10.253-0.591,7.585-2.446,2.146c-0.985-2.896-2.498-5.748-4.78-5.757c-1.609-0.006-2.795,1.426-3.302,2.501
	c-1.294,2.761-4.039,0.005-3.416-5.016c1.946-15.668,17.834-37.769,34.201-39.817c6.499-0.811,17.207-0.826,23.35,0.042
	c16.254,2.296,31.946,24.211,33.878,39.775c0.625,5.021-2.12,7.776-3.414,5.016c-0.507-1.075-1.692-2.507-3.302-2.501
	c-2.283,0.009-3.797,2.861-4.78,5.757c-1.856,5.439-2.729,8.107-2.277-2.146c0.858-19.43-14.598-43.05-30.96-43.784
	L1199.032,1615.55z"/>
<path fill-rule="evenodd" clip-rule="evenodd" fill="#FFFFFF" d="M1167.678,1657.854c-0.775-47.543,65.867-42.473,64.275-0.092
	c16.963-20.588-0.847-47.821-32.288-47.829C1168.224,1609.921,1161.03,1636.471,1167.678,1657.854"/>
<path fill-rule="evenodd" clip-rule="evenodd" fill="#FFFFFF" d="M1213.01,1622.483c18.398,6.604,29.234,19.741,24.201,29.341
	c-5.032,9.599-24.028,12.024-42.428,5.419c-18.398-6.604-29.233-19.743-24.201-29.341
	C1175.615,1618.304,1194.61,1615.878,1213.01,1622.483"/>
<path fill-rule="evenodd" clip-rule="evenodd" fill="#FFFFFF" d="M440.579,561.932c65.565-2.812,110.793-23.333,118.718-80.975
	c-52.396,28.562-13.411,9.298-5.993-52.227c6.224-51.624-33.762-147.429-114.417-148.56c-80.44,1.131-117.261,96.935-111.036,148.56
	c7.418,61.525,46.404,80.789-5.99,52.227C329.786,538.599,375.014,559.12,440.579,561.932"/>
<path fill-rule="evenodd" clip-rule="evenodd" fill="#FFFFFF" d="M296.685,553.044c19.488-12.608,48.691-17.857,72.201-27.122
	c39.428-15.537,21.297-54.071,20.947-90.395h101.443c-0.35,36.324-18.48,74.858,20.947,90.395
	c23.511,9.265,52.713,14.514,72.202,27.122c-33.361,42.802-85.396,70.336-143.871,70.336
	C382.082,623.38,330.046,595.848,296.685,553.044"/>
<path fill-rule="evenodd" clip-rule="evenodd" fill="#119891" d="M318.085,560.477c14.411-14.151,42.027-17.256,67.472-26.611
	c26.257-9.657,18.549-35.741,16.457-60.87h77.081c-2.092,25.129-9.8,51.213,16.456,60.87c25.445,9.355,53.063,12.461,67.473,26.611
	c-0.403,0.466-0.81,0.928-1.219,1.389H319.304C318.896,561.405,318.488,560.942,318.085,560.477"/>
<path fill="#FFFFFF" d="M528.463,383.899c5.568,5.75,8.949,13.688,10.355,22.283c1.239,7.573,0.972,15.734-0.661,23.279
	c-1.683,7.777-4.85,15.073-9.359,20.661c-3.563,4.413-7.938,7.783-13.082,9.606c-7.264,14.86-17.348,27.79-30.015,37.01
	c-12.687,9.233-27.82,14.719-45.146,14.719v-16.642c13.652,0,25.509-4.274,35.396-11.469c11.167-8.128,19.998-20.016,26.215-33.777
	c1.057-2.587,3.393-4.578,6.353-5.061c2.785-0.455,5.266-2.215,7.343-4.789c2.826-3.502,4.878-8.381,6.044-13.769
	c1.216-5.619,1.429-11.618,0.531-17.104c-1.002-6.119-3.325-11.457-7.096-14.502l0.008-0.01c-1.7-1.366-2.861-3.398-3.064-5.742
	c-1.857-20.74-9.201-40.173-22.664-53.627c-11.492-11.487-27.691-18.707-49.066-18.707v-16.641c26.181,0,46.279,9.102,60.768,23.582
	C516.982,338.85,525.798,360.67,528.463,383.899 M440.555,511.457c-17.324,0-32.457-5.486-45.144-14.719
	c-12.668-9.219-22.752-22.15-30.016-37.01c-5.146-1.823-9.522-5.194-13.083-9.609c-4.509-5.588-7.676-12.883-9.358-20.661
	c-1.633-7.543-1.901-15.704-0.661-23.277c1.407-8.595,4.787-16.534,10.355-22.283c2.662-23.228,11.478-45.047,27.137-60.697
	c14.49-14.481,34.591-23.583,60.77-23.583v16.641c-21.374,0-37.574,7.221-49.068,18.707c-13.375,13.368-20.708,32.634-22.623,53.221
	c-0.088,2.32-1.143,4.591-3.094,6.158c-3.771,3.044-6.094,8.383-7.096,14.5c-0.897,5.487-0.685,11.485,0.53,17.104
	c1.166,5.388,3.218,10.266,6.043,13.769c2.078,2.574,4.559,4.336,7.344,4.791l-0.001,0.005c2.662,0.436,5.06,2.159,6.241,4.806
	c6.225,13.867,15.095,25.848,26.331,34.026c9.884,7.195,21.742,11.469,35.393,11.469V511.457z"/>
<path fill-rule="evenodd" clip-rule="evenodd" fill="#119891" d="M520.54,387.877c18.48,14.917,11.98,61.113-10.688,64.823
	c-12.938,28.827-36.703,50.436-69.297,50.436c-32.594,0-56.357-21.609-69.297-50.436c-22.669-3.71-29.168-49.91-10.688-64.823
	c3.781-42.25,28.887-79.938,79.985-79.938C491.652,307.939,516.755,345.625,520.54,387.877"/>
<path fill-rule="evenodd" clip-rule="evenodd" fill="#FFFFFF" d="M439.44,307.957c-33.404,0.721-64.79,48.904-63.041,88.489
	c0.916,20.718-1.192,15.324-4.939,4.332c-1.994-5.848-5.049-11.613-9.661-11.629c-3.253-0.011-5.649,2.879-6.67,5.055
	c-2.617,5.577-8.162,0.007-6.902-10.135c3.929-31.66,36.033-76.314,69.105-80.455c13.131-1.64,34.767-1.67,47.178,0.085
	c32.842,4.638,64.552,48.917,68.456,80.37c1.258,10.141-4.286,15.712-6.902,10.135c-1.022-2.176-3.418-5.066-6.671-5.055
	c-4.612,0.016-7.667,5.781-9.66,11.629c-3.748,10.992-5.515,16.386-4.599-4.332c1.734-39.26-29.496-86.986-62.559-88.47
	L439.44,307.957z"/>
<path fill-rule="evenodd" clip-rule="evenodd" fill="#FFFFFF" d="M376.086,393.434c-1.565-96.063,133.09-85.82,129.875-0.186
	c34.275-41.596-1.709-96.623-65.241-96.646C377.19,296.58,362.656,350.226,376.086,393.434"/>
<path fill-rule="evenodd" clip-rule="evenodd" fill="#FFFFFF" d="M488.175,333.625c42.275,26.191,62.911,63.34,46.093,82.971
	c-16.819,19.632-64.723,14.313-106.997-11.88c-42.275-26.192-62.911-63.341-46.094-82.973
	C397.997,302.112,445.902,307.432,488.175,333.625"/>
<path fill-rule="evenodd" clip-rule="evenodd" fill="#119891" d="M318.326,576.322h244.458c-6.77,6.123-14,11.745-21.635,16.806
	H339.963C332.327,588.067,325.096,582.445,318.326,576.322"/>
<path fill-rule="evenodd" clip-rule="evenodd" fill="#119891" d="M364.005,606.573h153.099
	c-23.276,10.786-49.208,16.807-76.55,16.807C413.213,623.38,387.28,617.359,364.005,606.573"/>
<path fill-rule="evenodd" clip-rule="evenodd" fill="#119891" d="M235.802,1015.953c33.508,0,60.838-27.33,60.838-60.839
	s-27.33-60.839-60.838-60.839c-33.509,0-60.84,27.33-60.84,60.839S202.293,1015.953,235.802,1015.953"/>
<path fill-rule="evenodd" clip-rule="evenodd" fill="#FFFFFF" d="M235.802,995.94c22.485,0,40.825-18.34,40.825-40.826
	c0-22.486-18.34-40.825-40.825-40.825c-22.486,0-40.826,18.339-40.826,40.825C194.976,977.601,213.316,995.94,235.802,995.94"/>
<path fill-rule="evenodd" clip-rule="evenodd" fill="#A65575" d="M962.311,1937.533c33.509,0,60.839-27.33,60.839-60.838
	c0-33.511-27.33-60.841-60.839-60.841c-33.509,0-60.839,27.33-60.839,60.841C901.472,1910.203,928.802,1937.533,962.311,1937.533"/>
<path fill-rule="evenodd" clip-rule="evenodd" fill="#FFFFFF" d="M962.311,1917.52c22.486,0,40.825-18.34,40.825-40.824
	c0-22.487-18.339-40.827-40.825-40.827c-22.485,0-40.825,18.34-40.825,40.827C921.486,1899.18,939.826,1917.52,962.311,1917.52"/>
<path fill-rule="evenodd" clip-rule="evenodd" fill="#DD6F3E" d="M2008.551,1652.416c33.51,0,60.842-27.331,60.842-60.839
	c0-33.511-27.332-60.839-60.842-60.839c-33.508,0-60.838,27.328-60.838,60.839
	C1947.713,1625.085,1975.043,1652.416,2008.551,1652.416"/>
<path fill-rule="evenodd" clip-rule="evenodd" fill="#FFFFFF" d="M2008.551,1632.401c22.487,0,40.826-18.34,40.826-40.824
	c0-22.488-18.339-40.827-40.826-40.827c-22.484,0-40.824,18.339-40.824,40.827
	C1967.727,1614.062,1986.066,1632.401,2008.551,1632.401"/>
<path fill-rule="evenodd" clip-rule="evenodd" fill="#DD6F3E" d="M1327.518,350.993c33.508,0,60.839-27.33,60.839-60.839
	s-27.331-60.839-60.839-60.839c-33.51,0-60.839,27.33-60.839,60.839S1294.008,350.993,1327.518,350.993"/>
<path fill-rule="evenodd" clip-rule="evenodd" fill="#FFFFFF" d="M1327.518,330.979c22.486,0,40.825-18.34,40.825-40.825
	c0-22.486-18.339-40.826-40.825-40.826s-40.825,18.34-40.825,40.826C1286.692,312.64,1305.031,330.979,1327.518,330.979"/>
<path fill-rule="evenodd" clip-rule="evenodd" fill="#DD6F3E" d="M257.372,2048.017c33.509,0,60.839-27.33,60.839-60.839
	c0-33.51-27.33-60.839-60.839-60.839s-60.839,27.329-60.839,60.839C196.533,2020.687,223.863,2048.017,257.372,2048.017"/>
<path fill-rule="evenodd" clip-rule="evenodd" fill="#FFFFFF" d="M257.372,2028.003c22.485,0,40.825-18.34,40.825-40.825
	c0-22.486-18.34-40.826-40.825-40.826c-22.486,0-40.826,18.34-40.826,40.826C216.546,2009.663,234.886,2028.003,257.372,2028.003"/>
<path fill-rule="evenodd" clip-rule="evenodd" fill="#119891" d="M1962.518,966.496c33.509,0,60.839-27.33,60.839-60.839
	s-27.33-60.839-60.839-60.839c-33.51,0-60.84,27.33-60.84,60.839S1929.008,966.496,1962.518,966.496"/>
<path fill-rule="evenodd" clip-rule="evenodd" fill="#FFFFFF" d="M1962.518,946.482c22.486,0,40.824-18.34,40.824-40.825
	c0-22.487-18.338-40.826-40.824-40.826s-40.825,18.339-40.825,40.826C1921.692,928.143,1940.031,946.482,1962.518,946.482"/>
</svg>
