<svg version="1.1" x="0" y="0" width="100%" height="100%" viewBox="0 0 307200 32716.8" xmlns="http://www.w3.org/2000/svg">
  <path d="M 17360 15890.8 Q 17360 18112 16784 19786 Q 16208 21460 15116 22582 Q 14024 23704 12434 24268 Q 10844 24832 8828 24832 L 4436 24832 L 4436 7288 L 9318.8 7288 Q 11156 7288 12644 7840 Q 14132 8392 15176 9478 Q 16220 10564 16790 12172 Q 17360 13780 17360 15892 L 17360 15890.8 Z M 14997.2 15962.8 Q 14997.2 14210.8 14601.2 12932.8 Q 14205.2 11654.8 13449.2 10826.8 Q 12693.2 9998.8 11589.2 9596.8 Q 10485.2 9194.8 9080 9194.8 L 6669.2 9194.8 L 6669.2 22912 L 8613.2 22912 Q 11781.2 22912 13389.2 21160 Q 14997.2 19408 14997.2 15962.8  Z M 31619.6 18218.8 Q 31619.6 19864 31217.6 21142 Q 30815.6 22420 30065.6 23290 Q 29315.6 24160 28247.6 24616 Q 27179.6 25072 25846.4 25072 Q 24611.6 25072 23567.6 24616 Q 22523.6 24160 21761.6 23290 Q 20999.6 22420 20573.6 21142 Q 20147.6 19864 20147.6 18218.8 Q 20147.6 16586.8 20549.6 15320.8 Q 20951.6 14054.8 21695.6 13184.8 Q 22439.6 12314.8 23513.6 11864.8 Q 24587.6 11414.8 25918.4 11414.8 Q 27155.6 11414.8 28199.6 11864.8 Q 29243.6 12314.8 30005.6 13184.8 Q 30767.6 14054.8 31193.6 15320.8 Q 31619.6 16586.8 31619.6 18218.8  Z M 22403.6 18218.8 Q 22403.6 20728 23225.6 21994 Q 24047.6 23260 25895.6 23260 Q 27743.6 23260 28553.6 21994 Q 29363.6 20728 29363.6 18218.8 Q 29363.6 15712 28541.6 14470 Q 27719.6 13228 25871.6 13228 Q 24023.6 13228 23213.6 14470 Q 22403.6 15712 22403.6 18218.8  Z M 40268.8 25072 Q 38948.8 25072 37856.8 24628 Q 36764.8 24184 35978.8 23332 Q 35192.8 22480 34760.8 21220 Q 34328.8 19960 34328.8 18338.8 Q 34328.8 16706.8 34724.8 15422.8 Q 35120.8 14138.8 35840.8 13244.8 Q 36560.8 12350.8 37562.8 11882.8 Q 38564.8 11414.8 39778 11414.8 Q 40964.8 11414.8 41912.8 11840.8 Q 42860.8 12266.8 43520.8 13040.8 Q 44180.8 13814.8 44534.8 14900.8 Q 44888.8 15986.8 44888.8 17306.8 L 44888.8 18664 L 36584.8 18664 Q 36643.6 20978.8 37561.6 22070.8 Q 38479.6 23162.8 40290.4 23162.8 Q 40903.6 23162.8 41425.6 23102.8 Q 41947.6 23042.8 42433.6 22928.8 Q 42919.6 22814.8 43375.6 22640.8 Q 43831.6 22466.8 44298.4 22250.8 L 44298.4 24194.8 Q 43818.4 24424 43356.4 24592 Q 42894.4 24760 42408.4 24868 Q 41922.4 24976 41400.4 25024 Q 40878.4 25072 40265.2 25072 L 40268.8 25072 Z M 39730 13226.8 Q 38362 13226.8 37564 14162.8 Q 36766 15098.8 36635.2 16888 L 42539.2 16888 Q 42539.2 16072 42377.2 15394 Q 42215.2 14716 41873.2 14236 Q 41531.2 13756 41003.2 13492 Q 40475.2 13228 39731.2 13228 L 39730 13226.8 Z M 56002 21218.8 Q 56002 22178.8 55654 22898.8 Q 55306 23618.8 54652 24104.8 Q 53998 24590.8 53074 24830.8 Q 52150 25070.8 50998 25070.8 Q 49691.2 25070.8 48755.2 24860.8 Q 47819.2 24650.8 47110 24242.8 L 47110 22250.8 Q 47483.2 22442.8 47939.2 22628.8 Q 48395.2 22814.8 48899.2 22958.8 Q 49403.2 23102.8 49937.2 23192.8 Q 50471.2 23282.8 50999.2 23282.8 Q 51780.4 23282.8 52326.4 23150.8 Q 52872.4 23018.8 53214.4 22772.8 Q 53556.4 22526.8 53712.4 22172.8 Q 53868.4 21818.8 53868.4 21386.8 Q 53868.4 21016 53748.4 20716 Q 53628.4 20416 53310.4 20122 Q 52992.4 19828 52440.4 19528 Q 51888.4 19228 51024.4 18857.2 Q 50160.4 18484 49470.4 18124 Q 48780.4 17764 48300.4 17320 Q 47820.4 16876 47562.4 16294 Q 47304.4 15712 47304.4 14906.8 Q 47304.4 14066.8 47634.4 13412.8 Q 47964.4 12758.8 48564.4 12314.8 Q 49164.4 11870.8 50004.4 11642.8 Q 50844.4 11414.8 51876.4 11414.8 Q 53039.2 11414.8 54005.2 11666.8 Q 54971.2 11918.8 55835.2 12326.8 L 55078 14089.6 Q 54299.2 13742.8 53477.2 13484.8 Q 52655.2 13226.8 51804.4 13226.8 Q 50580.4 13226.8 49992.4 13628.8 Q 49404.4 14030.8 49404.4 14774.8 Q 49404.4 15193.6 49542.4 15505.6 Q 49680.4 15817.6 50016.4 16093.6 Q 50352.4 16369.6 50916.4 16651.6 Q 51480.4 16933.6 52320.4 17280.4 Q 53184.4 17640.4 53862.4 18000.4 Q 54540.4 18360.4 55020.4 18810.4 Q 55500.4 19260.4 55752.4 19836.4 Q 56004.4 20412.4 56004.4 21215.2 L 56002 21218.8 Z M 69457.6 23282.8 Q 69673.6 23282.8 69943.6 23258.8 Q 70213.6 23234.8 70465.6 23198.8 Q 70717.6 23162.8 70927.6 23114.8 Q 71137.6 23066.8 71246.8 23032 L 71246.8 24688 Q 71089.6 24760 70849.6 24832 Q 70609.6 24904 70321.6 24958 Q 70033.6 25012 69721.6 25042 Q 69409.6 25072 69110.8 25072 Q 68366.8 25072 67730.8 24880 Q 67094.8 24688 66632.8 24220 Q 66170.8 23752 65906.8 22954 Q 65642.8 22156 65642.8 20945.2 L 65642.8 13300 L 63784 13300 L 63784 12329.2 L 65642.8 11393.2 L 66578.8 8633.2 L 67840 8633.2 L 67840 11657.2 L 71152 11657.2 L 71152 13300 L 67840 13300 L 67840 20945.2 Q 67840 22108 68218 22696 Q 68596 23284 69460 23284 L 69457.6 23282.8 Z M 82000 24832 L 82000 16346.8 Q 82000 14786.8 81370 14006.8 Q 80740 13226.8 79396 13226.8 Q 78422.8 13226.8 77762.8 13538.8 Q 77102.8 13850.8 76700.8 14462.8 Q 76298.8 15074.8 76124.8 15962.8 Q 75950.8 16850.8 75950.8 18002.8 L 75950.8 24832 L 73766.8 24832 L 73766.8 6160 L 75950.8 6160 L 75950.8 11704 L 75854.8 13432 L 75974.8 13432 Q 76276 12914.8 76690 12536.8 Q 77104 12158.8 77596 11906.8 Q 78088 11654.8 78640 11534.8 Q 79192 11414.8 79768 11414.8 Q 81965.2 11414.8 83075.2 12560.8 Q 84185.2 13706.8 84185.2 16226.8 L 84185.2 24832 L 82001.2 24832 L 82000 24832 Z M 90390.4 24832 L 88206.4 24832 L 88206.4 11656 L 90390.4 11656 L 90390.4 24832 Z M 88038.4 8090.8 Q 88038.4 7370.8 88404.4 7046.8 Q 88770.4 6722.8 89309.2 6722.8 Q 89573.2 6722.8 89807.2 6800.8 Q 90041.2 6878.8 90215.2 7046.8 Q 90389.2 7214.8 90491.2 7472.8 Q 90593.2 7730.8 90593.2 8090.8 Q 90593.2 8786.8 90215.2 9128.8 Q 89837.2 9470.8 89309.2 9470.8 Q 88770.4 9470.8 88404.4 9134.8 Q 88038.4 8798.8 88038.4 8089.6 L 88038.4 8090.8 Z M 102389.2 21218.8 Q 102389.2 22178.8 102041.2 22898.8 Q 101693.2 23618.8 101039.2 24104.8 Q 100385.2 24590.8 99461.2 24830.8 Q 98537.2 25070.8 97385.2 25070.8 Q 96078.4 25070.8 95142.4 24860.8 Q 94206.4 24650.8 93497.2 24242.8 L 93497.2 22250.8 Q 93870.4 22442.8 94326.4 22628.8 Q 94782.4 22814.8 95286.4 22958.8 Q 95790.4 23102.8 96324.4 23192.8 Q 96858.4 23282.8 97386.4 23282.8 Q 98167.6 23282.8 98713.6 23150.8 Q 99259.6 23018.8 99601.6 22772.8 Q 99943.6 22526.8 100099.6 22172.8 Q 100255.6 21818.8 100255.6 21386.8 Q 100255.6 21016 100135.6 20716 Q 100015.6 20416 99697.6 20122 Q 99379.6 19828 98827.6 19528 Q 98275.6 19228 97411.6 18857.2 Q 96547.6 18484 95857.6 18124 Q 95167.6 17764 94687.6 17320 Q 94207.6 16876 93949.6 16294 Q 93691.6 15712 93691.6 14906.8 Q 93691.6 14066.8 94021.6 13412.8 Q 94351.6 12758.8 94951.6 12314.8 Q 95551.6 11870.8 96391.6 11642.8 Q 97231.6 11414.8 98263.6 11414.8 Q 99426.4 11414.8 100392.4 11666.8 Q 101358.4 11918.8 102222.4 12326.8 L 101465.2 14089.6 Q 100686.4 13742.8 99864.4 13484.8 Q 99042.4 13226.8 98191.6 13226.8 Q 96967.6 13226.8 96379.6 13628.8 Q 95791.6 14030.8 95791.6 14774.8 Q 95791.6 15193.6 95929.6 15505.6 Q 96067.6 15817.6 96403.6 16093.6 Q 96739.6 16369.6 97303.6 16651.6 Q 97867.6 16933.6 98707.6 17280.4 Q 99571.6 17640.4 100249.6 18000.4 Q 100927.6 18360.4 101407.6 18810.4 Q 101887.6 19260.4 102139.6 19836.4 Q 102391.6 20412.4 102391.6 21215.2 L 102389.2 21218.8 Z M 121868.8 24832 L 119852.8 17440 Q 119804.8 17224 119732.8 16954 Q 119660.8 16684 119588.8 16384 Q 119516.8 16084 119438.8 15772 Q 119360.8 15460 119288.8 15161.2 Q 119120.8 14465.2 118939.6 13721.2 L 118867.6 13721.2 Q 118699.6 14476 118544.8 15172 Q 118411.6 15772 118261.6 16408 Q 118111.6 17044 117978.4 17489.2 L 115914.4 24833.2 L 113383.6 24833.2 L 110010.4 11657.2 L 112303.6 11657.2 L 113874.4 18665.2 Q 113994.4 19204 114114.4 19834 Q 114234.4 20464 114342.4 21082 Q 114450.4 21700 114534.4 22246 Q 114618.4 22792 114666.4 23138.8 L 114738.4 23138.8 Q 114799.6 22826.8 114901.6 22304.8 Q 115003.6 21782.8 115129.6 21200.8 Q 115255.6 20618.8 115387.6 20048.8 Q 115519.6 19478.8 115639.6 19081.6 L 117786.4 11654.8 L 120138.4 11654.8 L 122202.4 19081.6 Q 122311.6 19489.6 122449.6 20041.6 Q 122587.6 20593.6 122719.6 21163.6 Q 122851.6 21733.6 122959.6 22261.6 Q 123067.6 22789.6 123115.6 23136.4 L 123187.6 23136.4 Q 123224.8 22824.4 123302.8 22302.4 Q 123380.8 21780.4 123488.8 21156.4 Q 123596.8 20532.4 123722.8 19878.4 Q 123848.8 19224.4 123979.6 18661.6 L 125624.8 11653.6 L 127856.8 11653.6 L 124448.8 24829.6 L 121867.6 24829.6 L 121868.8 24832 Z M 140880.4 18218.8 Q 140880.4 19864 140478.4 21142 Q 140076.4 22420 139326.4 23290 Q 138576.4 24160 137508.4 24616 Q 136440.4 25072 135107.2 25072 Q 133872.4 25072 132828.4 24616 Q 131784.4 24160 131022.4 23290 Q 130260.4 22420 129834.4 21142 Q 129408.4 19864 129408.4 18218.8 Q 129408.4 16586.8 129810.4 15320.8 Q 130212.4 14054.8 130956.4 13184.8 Q 131700.4 12314.8 132774.4 11864.8 Q 133848.4 11414.8 135179.2 11414.8 Q 136416.4 11414.8 137460.4 11864.8 Q 138504.4 12314.8 139266.4 13184.8 Q 140028.4 14054.8 140454.4 15320.8 Q 140880.4 16586.8 140880.4 18218.8  Z M 131664.4 18218.8 Q 131664.4 20728 132486.4 21994 Q 133308.4 23260 135156.4 23260 Q 137004.4 23260 137814.4 21994 Q 138624.4 20728 138624.4 18218.8 Q 138624.4 15712 137802.4 14470 Q 136980.4 13228 135132.4 13228 Q 133284.4 13228 132474.4 14470 Q 131664.4 15712 131664.4 18218.8  Z M 150022.8 11416 Q 150369.6 11416 150801.6 11446 Q 151233.6 11476 151545.6 11537.2 L 151257.6 13553.2 Q 150921.6 13492 150567.6 13450 Q 150213.6 13408 149901.6 13408 Q 149144.4 13408 148520.4 13714 Q 147896.4 14020 147446.4 14590 Q 146996.4 15160 146750.4 15958 Q 146504.4 16756 146504.4 17729.2 L 146504.4 24833.2 L 144320.4 24833.2 L 144320.4 11657.2 L 146096.4 11657.2 L 146360.4 14068 L 146456.4 14068 Q 146757.6 13553.2 147099.6 13073.2 Q 147441.6 12593.2 147867.6 12227.2 Q 148293.6 11861.2 148821.6 11639.2 Q 149349.6 11417.2 150021.6 11417.2 L 150022.8 11416 Z M 156168 18026.8 L 157789.2 15986.8 L 161304 11656 L 163837.2 11656 L 159024 17354.8 L 164160 24832 L 161653.2 24832 L 157621.2 18784 L 156312 19768 L 156312 24832 L 154152 24832 L 154152 6160 L 156312 6160 L 156312 14728 L 156120 18026.8 L 156168 18026.8 Z M 180013.2 24832 L 179568 23008 L 179472 23008 Q 179077.2 23546.8 178681.2 23936.8 Q 178285.2 24326.8 177817.2 24578.8 Q 177349.2 24830.8 176773.2 24950.8 Q 176197.2 25070.8 175440 25070.8 Q 174613.2 25070.8 173917.2 24836.8 Q 173221.2 24602.8 172711.2 24116.8 Q 172201.2 23630.8 171913.2 22892.8 Q 171625.2 22154.8 171625.2 21146.8 Q 171625.2 19178.8 173011.2 18122.8 Q 174397.2 17066.8 177229.2 16970.8 L 179437.2 16888 L 179437.2 16058.8 Q 179437.2 15256 179263.2 14716 Q 179089.2 14176 178759.2 13846 Q 178429.2 13516 177943.2 13372 Q 177457.2 13228 176833.2 13228 Q 175838.4 13228 174980.4 13516 Q 174122.4 13804 173330.4 14212 L 172562.4 12569.2 Q 173450.4 12089.2 174542.4 11753.2 Q 175634.4 11417.2 176834.4 11417.2 Q 178058.4 11417.2 178952.4 11663.2 Q 179846.4 11909.2 180428.4 12443.2 Q 181010.4 12977.2 181298.4 13805.2 Q 181586.4 14633.2 181586.4 15809.2 L 181586.4 24833.2 L 180015.6 24833.2 L 180013.2 24832 Z M 176005.2 23306.8 Q 176736 23306.8 177360 23078.8 Q 177984 22850.8 178440 22388.8 Q 178896 21926.8 179154 21224.8 Q 179412 20522.8 179412 19576 L 179412 18386.8 L 177694.8 18472 Q 176614.8 18520 175882.8 18712 Q 175150.8 18904 174712.8 19246 Q 174274.8 19588 174082.8 20074 Q 173890.8 20560 173890.8 21170.8 Q 173890.8 22274.8 174472.8 22790.8 Q 175054.8 23306.8 176004 23306.8 L 176005.2 23306.8 Z M 189521.6 23282.8 Q 189737.6 23282.8 190007.6 23258.8 Q 190277.6 23234.8 190529.6 23198.8 Q 190781.6 23162.8 190991.6 23114.8 Q 191201.6 23066.8 191310.8 23032 L 191310.8 24688 Q 191153.6 24760 190913.6 24832 Q 190673.6 24904 190385.6 24958 Q 190097.6 25012 189785.6 25042 Q 189473.6 25072 189174.8 25072 Q 188430.8 25072 187794.8 24880 Q 187158.8 24688 186696.8 24220 Q 186234.8 23752 185970.8 22954 Q 185706.8 22156 185706.8 20945.2 L 185706.8 13300 L 183848 13300 L 183848 12329.2 L 185706.8 11393.2 L 186642.8 8633.2 L 187904 8633.2 L 187904 11657.2 L 191216 11657.2 L 191216 13300 L 187904 13300 L 187904 20945.2 Q 187904 22108 188282 22696 Q 188660 23284 189524 23284 L 189521.6 23282.8 Z M 207558.8 24832 L 207113.6 23008 L 207017.6 23008 Q 206622.8 23546.8 206226.8 23936.8 Q 205830.8 24326.8 205362.8 24578.8 Q 204894.8 24830.8 204318.8 24950.8 Q 203742.8 25070.8 202985.6 25070.8 Q 202158.8 25070.8 201462.8 24836.8 Q 200766.8 24602.8 200256.8 24116.8 Q 199746.8 23630.8 199458.8 22892.8 Q 199170.8 22154.8 199170.8 21146.8 Q 199170.8 19178.8 200556.8 18122.8 Q 201942.8 17066.8 204774.8 16970.8 L 206982.8 16888 L 206982.8 16058.8 Q 206982.8 15256 206808.8 14716 Q 206634.8 14176 206304.8 13846 Q 205974.8 13516 205488.8 13372 Q 205002.8 13228 204378.8 13228 Q 203384 13228 202526 13516 Q 201668 13804 200876 14212 L 200108 12569.2 Q 200996 12089.2 202088 11753.2 Q 203180 11417.2 204380 11417.2 Q 205604 11417.2 206498 11663.2 Q 207392 11909.2 207974 12443.2 Q 208556 12977.2 208844 13805.2 Q 209132 14633.2 209132 15809.2 L 209132 24833.2 L 207561.2 24833.2 L 207558.8 24832 Z M 203550.8 23306.8 Q 204281.6 23306.8 204905.6 23078.8 Q 205529.6 22850.8 205985.6 22388.8 Q 206441.6 21926.8 206699.6 21224.8 Q 206957.6 20522.8 206957.6 19576 L 206957.6 18386.8 L 205240.4 18472 Q 204160.4 18520 203428.4 18712 Q 202696.4 18904 202258.4 19246 Q 201820.4 19588 201628.4 20074 Q 201436.4 20560 201436.4 21170.8 Q 201436.4 22274.8 202018.4 22790.8 Q 202600.4 23306.8 203549.6 23306.8 L 203550.8 23306.8 Z M 215267.2 24832 L 213083.2 24832 L 213083.2 6160 L 215267.2 6160 L 215267.2 24832 Z M 221564.8 24832 L 219380.8 24832 L 219380.8 6160 L 221564.8 6160 L 221564.8 24832 Z M 226963.6 19864 L 226963.6 19418.8 Q 226963.6 18736 227053.6 18184 Q 227143.6 17632 227377.6 17152 Q 227611.6 16672 228007.6 16210 Q 228403.6 15748 229003.6 15244 Q 229579.6 14753.2 229987.6 14351.2 Q 230395.6 13949.2 230653.6 13535.2 Q 230911.6 13121.2 231037.6 12647.2 Q 231163.6 12173.2 231163.6 11538.4 Q 231163.6 10962.4 230983.6 10488.4 Q 230803.6 10014.4 230461.6 9672.4 Q 230119.6 9330.4 229609.6 9144.4 Q 229099.6 8958.4 228427.6 8958.4 Q 227430.4 8958.4 226530.4 9270.4 Q 225630.4 9582.4 224790.4 9990.4 L 224035.6 8251.6 Q 225006.4 7747.6 226134.4 7393.6 Q 227262.4 7039.6 228427.6 7039.6 Q 229542.4 7039.6 230436.4 7345.6 Q 231330.4 7651.6 231954.4 8227.6 Q 232578.4 8803.6 232914.4 9637.6 Q 233250.4 10471.6 233250.4 11516.8 Q 233250.4 12319.6 233088.4 12949.6 Q 232926.4 13579.6 232602.4 14119.6 Q 232278.4 14659.6 231798.4 15163.6 Q 231318.4 15667.6 230670.4 16230.4 Q 230046.4 16771.6 229650.4 17173.6 Q 229254.4 17575.6 229026.4 17953.6 Q 228798.4 18331.6 228714.4 18727.6 Q 228630.4 19123.6 228630.4 19651.6 L 228630.4 19867.6 L 226963.6 19867.6 L 226963.6 19864 Z M 226387.6 23498.8 Q 226387.6 23042.8 226507.6 22724.8 Q 226627.6 22406.8 226831.6 22208.8 Q 227035.6 22010.8 227311.6 21920.8 Q 227587.6 21830.8 227910.4 21830.8 Q 228222.4 21830.8 228504.4 21920.8 Q 228786.4 22010.8 228990.4 22208.8 Q 229194.4 22406.8 229314.4 22724.8 Q 229434.4 23042.8 229434.4 23498.8 Q 229434.4 23944 229314.4 24262 Q 229194.4 24580 228990.4 24785.2 Q 228786.4 24990.4 228504.4 25086.4 Q 228222.4 25182.4 227910.4 25182.4 Q 227587.6 25182.4 227311.6 25086.4 Q 227035.6 24990.4 226831.6 24785.2 Q 226627.6 24580 226507.6 24262 Q 226387.6 23944 226387.6 23498.8  Z " fill-rule="nonzero" style="fill:#000000;;fill-opacity:1;"/>
</svg>